<svg id="Layer_1" data-name="Layer 1" xmlns="http://www.w3.org/2000/svg" viewBox="0 0 176.6 248.6"><defs><style>.cls-1{fill:#006981;}</style></defs><path class="cls-1" d="M0,0V248.6H176.6V0ZM148.27,139.36l4.28-2.68a1.7,1.7,0,1,1,1.81,2.88l-4.28,2.68a1.67,1.67,0,0,1-.9.26,1.7,1.7,0,0,1-.91-3.14Zm-.89-9a1.7,1.7,0,0,1,1.05-2.17l4.47-1.55a1.7,1.7,0,0,1,1.11,3.21l-4.47,1.56a1.77,1.77,0,0,1-.56.09A1.69,1.69,0,0,1,147.38,130.38Zm7.29,18.71-3.9,3.94a1.7,1.7,0,1,1-2.42-2.39l3.9-3.94a1.7,1.7,0,0,1,2.42,2.39Zm-6.78,61.31a1.7,1.7,0,0,1,2.39-.22l4.22,3.52a1.7,1.7,0,0,1-1.09,3,1.69,1.69,0,0,1-1.09-.4l-4.22-3.51A1.7,1.7,0,0,1,147.89,210.4Zm1.32-12a1.7,1.7,0,0,1,2.34.55l3.22,5.24a1.7,1.7,0,0,1-.55,2.34,1.7,1.7,0,0,1-2.34-.56l-3.23-5.23A1.7,1.7,0,0,1,149.21,198.42ZM155,184.66a1.7,1.7,0,0,1-1.7,1.68h0a1.69,1.69,0,0,1-1.68-1.72l.08-6.94a1.7,1.7,0,0,1,1.7-1.68h0a1.71,1.71,0,0,1,1.68,1.73Zm-1.84,3.43,1.78,6.48a1.7,1.7,0,0,1-1.19,2.08,1.47,1.47,0,0,1-.46.07,1.7,1.7,0,0,1-1.63-1.25L149.91,189a1.7,1.7,0,1,1,3.28-.9Zm-3.6-23.66a1.7,1.7,0,0,1-.65-2.31l3.08-5.43a1.7,1.7,0,1,1,3,1.67l-3.08,5.43a1.7,1.7,0,0,1-1.48.86A1.66,1.66,0,0,1,149.59,164.43Zm1.54-142.52,2.45.18a1.7,1.7,0,0,1-.12,3.39h-.12l-2.45-.17a1.7,1.7,0,1,1,.24-3.4Zm-1.89,12a1.69,1.69,0,0,1,1.87-1.5l2.53.27a1.7,1.7,0,0,1-.18,3.39h-.18l-2.53-.27A1.71,1.71,0,0,1,149.24,33.94Zm-.17,10.26a1.69,1.69,0,0,1,2-1.3l2.72.6a1.7,1.7,0,0,1-.36,3.36,1.55,1.55,0,0,1-.37,0l-2.72-.6A1.7,1.7,0,0,1,149.07,44.2Zm-.2,10.16a1.71,1.71,0,0,1,2.17-1l3,1.08a1.7,1.7,0,0,1-.57,3.3,1.69,1.69,0,0,1-.58-.1l-3-1.07A1.7,1.7,0,0,1,148.87,54.36Zm-.22,10.2a1.69,1.69,0,0,1,2.27-.79l3.28,1.58a1.7,1.7,0,0,1-.74,3.23,1.63,1.63,0,0,1-.74-.17l-3.28-1.58A1.7,1.7,0,0,1,148.65,64.56ZM148.35,75a1.69,1.69,0,0,1,2.28-.74l3.6,1.83a1.7,1.7,0,0,1-.78,3.22,1.65,1.65,0,0,1-.77-.19l-3.59-1.83A1.7,1.7,0,0,1,148.35,75Zm-.49,10.84a1.71,1.71,0,0,1,2.2-1l4,1.53a1.7,1.7,0,0,1-.61,3.29,1.87,1.87,0,0,1-.61-.11l-4-1.53A1.7,1.7,0,0,1,147.86,85.83ZM147.45,97a1.71,1.71,0,0,1,2-1.39l4.33.76a1.7,1.7,0,0,1-.29,3.37l-.29,0L148.84,99A1.7,1.7,0,0,1,147.45,97Zm1.48,9.45,4.51,0h0a1.7,1.7,0,0,1,0,3.4l-4.51,0h0a1.7,1.7,0,0,1,0-3.4Zm-.3,10.85,4.54-.76a1.7,1.7,0,0,1,.57,3.35l-4.54.76a1.43,1.43,0,0,1-.29,0,1.7,1.7,0,0,1-.28-3.38Zm-5.28,70.86,1.73,6.49a1.71,1.71,0,0,1-1.21,2.09,2.12,2.12,0,0,1-.44.05,1.7,1.7,0,0,1-1.64-1.26l-1.73-6.5a1.7,1.7,0,0,1,3.29-.87Zm-1.73-3.5.19-6.93a1.71,1.71,0,0,1,1.7-1.65h.05a1.69,1.69,0,0,1,1.65,1.75l-.19,6.93a1.69,1.69,0,0,1-1.69,1.65h-.05A1.71,1.71,0,0,1,141.62,184.65Zm.12,14.37,3.21,5.24a1.69,1.69,0,0,1-.56,2.34,1.66,1.66,0,0,1-.88.25,1.7,1.7,0,0,1-1.46-.81l-3.21-5.24a1.7,1.7,0,0,1,2.9-1.78Zm-1.27,11.22,4.23,3.48a1.7,1.7,0,0,1,.24,2.39,1.69,1.69,0,0,1-2.4.24l-4.23-3.49a1.7,1.7,0,1,1,2.16-2.62Zm4.8-42.19-1.87,6.38a1.7,1.7,0,0,1-1.63,1.22,1.59,1.59,0,0,1-.48-.07,1.69,1.69,0,0,1-1.15-2.11l1.87-6.38a1.7,1.7,0,1,1,3.26,1Zm-.23-9.27-3,5a1.7,1.7,0,0,1-2.9-1.78l3-5a1.7,1.7,0,1,1,2.9,1.78Zm-.37-9.21L140.9,153a1.66,1.66,0,0,1-1.14.45,1.7,1.7,0,0,1-1.15-3l3.76-3.44a1.71,1.71,0,0,1,2.3,2.52Zm-.35-9.52-4.1,2.18a1.73,1.73,0,0,1-.79.19,1.7,1.7,0,0,1-.81-3.2l4.1-2.18a1.7,1.7,0,0,1,1.6,3Zm-.41-9.7-4.24,1.05a1.48,1.48,0,0,1-.41,0,1.7,1.7,0,0,1-.41-3.35l4.25-1a1.7,1.7,0,0,1,.81,3.3Zm-4.34-107a1.7,1.7,0,0,1,2-1.28l2.15.49a1.7,1.7,0,0,1-.37,3.36,1.64,1.64,0,0,1-.38,0l-2.15-.49A1.7,1.7,0,0,1,139.57,23.34Zm0,10.45a1.7,1.7,0,0,1,2.08-1.21l2.21.6a1.7,1.7,0,0,1-.43,3.34,1.74,1.74,0,0,1-.45-.06l-2.21-.59A1.7,1.7,0,0,1,139.53,33.79Zm-.14,10.26a1.71,1.71,0,0,1,2.2-1L144,44a1.7,1.7,0,0,1-.6,3.29,1.59,1.59,0,0,1-.6-.11l-2.39-.91A1.7,1.7,0,0,1,139.39,44.05Zm-.15,10.19a1.68,1.68,0,0,1,2.29-.72l2.63,1.37a1.7,1.7,0,0,1-.79,3.21,1.75,1.75,0,0,1-.79-.2L140,56.53A1.69,1.69,0,0,1,139.24,54.24Zm-.18,10.21a1.7,1.7,0,0,1,2.35-.5l2.88,1.88a1.7,1.7,0,0,1-.93,3.13,1.65,1.65,0,0,1-.92-.28l-2.88-1.88A1.7,1.7,0,0,1,139.06,64.45Zm-.28,10.41a1.7,1.7,0,0,1,2.36-.46l3.19,2.16a1.7,1.7,0,0,1-1,3.11,1.66,1.66,0,0,1-.95-.29l-3.2-2.16A1.69,1.69,0,0,1,138.78,74.86Zm-.5,10.8a1.7,1.7,0,0,1,2.3-.71l3.61,1.91a1.7,1.7,0,0,1-.79,3.2,1.6,1.6,0,0,1-.79-.2L139,88A1.7,1.7,0,0,1,138.28,85.66Zm-.45,11.12a1.7,1.7,0,0,1,2.11-1.14l4,1.2a1.7,1.7,0,0,1-.49,3.33,1.66,1.66,0,0,1-.49-.07l-4-1.2A1.7,1.7,0,0,1,137.83,96.78Zm-.25,11.15a1.71,1.71,0,0,1,1.87-1.52l4.2.43a1.7,1.7,0,0,1-.17,3.39h-.18l-4.2-.42A1.71,1.71,0,0,1,137.58,107.93Zm1.54,9.28,4.26-.27a1.7,1.7,0,0,1,.22,3.4l-4.27.27h-.11a1.7,1.7,0,0,1-.1-3.4Zm-8.53,93.18,4.3,3.32a1.7,1.7,0,0,1-2.08,2.69l-4.3-3.32a1.7,1.7,0,0,1,2.08-2.69Zm-1.72-59.93,3.52-3.16a1.7,1.7,0,1,1,2.27,2.53L131.14,153a1.68,1.68,0,0,1-1.13.43,1.72,1.72,0,0,1-1.27-.56A1.7,1.7,0,0,1,128.87,150.46Zm5.78,56.17a1.69,1.69,0,0,1-.91.27,1.73,1.73,0,0,1-1.44-.78L129,201a1.7,1.7,0,1,1,2.87-1.83l3.3,5.14A1.71,1.71,0,0,1,134.65,206.63Zm-1.21-18.39,1.81,6.45a1.69,1.69,0,0,1-1.18,2.09,1.43,1.43,0,0,1-.46.07,1.7,1.7,0,0,1-1.63-1.24l-1.82-6.44a1.7,1.7,0,0,1,3.28-.93Zm-1.73-3.53.12-6.81a1.71,1.71,0,0,1,1.7-1.68h0a1.69,1.69,0,0,1,1.67,1.73l-.12,6.81a1.71,1.71,0,0,1-1.7,1.67h0A1.7,1.7,0,0,1,131.71,184.71Zm3.57-16.35-1.72,6a1.7,1.7,0,0,1-1.63,1.23,1.58,1.58,0,0,1-.47-.07,1.7,1.7,0,0,1-1.16-2.1l1.71-6a1.7,1.7,0,0,1,3.27.94Zm-.22-9.29-2.85,4.65a1.7,1.7,0,1,1-2.9-1.77l2.84-4.66a1.71,1.71,0,0,1,2.91,1.78Zm-.76-18.76-3.83,1.92a1.76,1.76,0,0,1-.76.18,1.7,1.7,0,0,1-.76-3.22l3.84-1.92a1.7,1.7,0,1,1,1.51,3Zm-.45-9.66-4,.74a1.73,1.73,0,0,1-.32,0,1.7,1.7,0,0,1-.31-3.37l4-.75a1.7,1.7,0,0,1,.63,3.35ZM129.9,23a1.71,1.71,0,0,1,2.25-.85L134,23a1.7,1.7,0,0,1-.7,3.25,1.78,1.78,0,0,1-.71-.15l-1.85-.85A1.7,1.7,0,0,1,129.9,23Zm0,10.46a1.71,1.71,0,0,1,2.28-.78l1.91,1a1.7,1.7,0,0,1-1.51,3l-1.91-.95A1.7,1.7,0,0,1,129.87,33.43Zm-.09,10.29a1.7,1.7,0,0,1,2.34-.57l2.06,1.26a1.71,1.71,0,0,1-.89,3.16,1.75,1.75,0,0,1-.88-.25l-2.07-1.26A1.7,1.7,0,0,1,129.78,43.72ZM129.66,54a1.71,1.71,0,0,1,2.39-.33l2.26,1.7a1.7,1.7,0,0,1-2.05,2.72L130,56.34A1.7,1.7,0,0,1,129.66,54Zm-.15,10.26a1.71,1.71,0,0,1,2.4-.15l2.49,2.19a1.7,1.7,0,0,1,.15,2.4,1.68,1.68,0,0,1-1.28.57,1.74,1.74,0,0,1-1.12-.42l-2.48-2.19A1.7,1.7,0,0,1,129.51,64.22Zm-.27,10.43a1.7,1.7,0,0,1,2.4-.14L134.42,77a1.7,1.7,0,0,1,.13,2.4,1.67,1.67,0,0,1-1.27.57,1.7,1.7,0,0,1-1.13-.43l-2.77-2.48A1.71,1.71,0,0,1,129.24,74.65Zm-.51,10.77a1.7,1.7,0,0,1,2.37-.4l3.21,2.26a1.7,1.7,0,0,1-2,2.78l-3.22-2.27A1.7,1.7,0,0,1,128.73,85.42Zm-.48,11.06a1.71,1.71,0,0,1,2.26-.85l3.61,1.65a1.7,1.7,0,0,1,.85,2.25,1.73,1.73,0,0,1-1.55,1,1.56,1.56,0,0,1-.7-.16l-3.62-1.64A1.7,1.7,0,0,1,128.25,96.48Zm-.31,11.18a1.69,1.69,0,0,1,2-1.29l3.88.86a1.7,1.7,0,0,1-.37,3.36,2.46,2.46,0,0,1-.37,0l-3.88-.86A1.7,1.7,0,0,1,127.94,107.66Zm1.59,9.5h.05l4,.1a1.7,1.7,0,0,1,0,3.4h0l-4-.1a1.7,1.7,0,0,1,0-3.4ZM119.15,150.6l3.15-3a1.7,1.7,0,0,1,2.35,2.46l-3.15,3a1.68,1.68,0,0,1-2.4-.05A1.69,1.69,0,0,1,119.15,150.6Zm-.63-9a1.69,1.69,0,0,1,.74-2.29l3.49-1.79a1.7,1.7,0,0,1,2.29.74,1.72,1.72,0,0,1-.74,2.29l-3.49,1.78a1.66,1.66,0,0,1-.78.19A1.71,1.71,0,0,1,118.52,141.6Zm6.5,17.73-2.49,4.4a1.7,1.7,0,0,1-1.48.86,1.73,1.73,0,0,1-.84-.22,1.71,1.71,0,0,1-.64-2.32l2.49-4.4a1.7,1.7,0,0,1,3,1.68ZM119.54,199a1.7,1.7,0,0,1,2.37.4l3.49,4.88a1.7,1.7,0,0,1-.4,2.37,1.64,1.64,0,0,1-1,.32,1.7,1.7,0,0,1-1.39-.71l-3.49-4.88A1.72,1.72,0,0,1,119.54,199Zm4.83-2.2a1.6,1.6,0,0,1-.53.09,1.7,1.7,0,0,1-1.61-1.17l-2-6.12a1.7,1.7,0,1,1,3.23-1.05l2,6.11A1.69,1.69,0,0,1,124.37,196.78Zm-.76-10.37h0a1.7,1.7,0,0,1-1.7-1.67l-.12-6.33a1.69,1.69,0,0,1,1.67-1.73h0a1.71,1.71,0,0,1,1.7,1.67l.12,6.33A1.7,1.7,0,0,1,123.61,186.41Zm1.62-17.72-1.41,5.62a1.71,1.71,0,0,1-1.65,1.29,1.52,1.52,0,0,1-.42-.06,1.69,1.69,0,0,1-1.23-2.06l1.41-5.61a1.7,1.7,0,1,1,3.3.82Zm-1.42-37.76-3.65.57-.27,0a1.7,1.7,0,0,1-.26-3.38l3.65-.58a1.71,1.71,0,0,1,.53,3.37ZM120.33,22.69a1.69,1.69,0,0,1,2.38-.32l1.55,1.18a1.7,1.7,0,0,1-1,3.05,1.67,1.67,0,0,1-1-.35l-1.55-1.18A1.69,1.69,0,0,1,120.33,22.69Zm0,10.47a1.7,1.7,0,0,1,2.39-.26l1.58,1.28a1.71,1.71,0,0,1,.25,2.4,1.69,1.69,0,0,1-1.32.63,1.73,1.73,0,0,1-1.07-.38l-1.58-1.28A1.7,1.7,0,0,1,120.32,33.16Zm0,10.34a1.69,1.69,0,0,1,2.4-.08L124.35,45a1.7,1.7,0,0,1-1.16,2.94,1.68,1.68,0,0,1-1.16-.46l-1.69-1.58A1.69,1.69,0,0,1,120.27,43.5Zm-.09,10.3a1.69,1.69,0,0,1,2.4.09l1.84,2a1.7,1.7,0,0,1-2.5,2.31l-1.84-2A1.7,1.7,0,0,1,120.18,53.8ZM120,64.11a1.7,1.7,0,0,1,2.4.22l2,2.45a1.71,1.71,0,0,1-1.31,2.79,1.72,1.72,0,0,1-1.31-.62l-2-2.45A1.7,1.7,0,0,1,120,64.11Zm-.27,10.45a1.7,1.7,0,0,1,2.4.2l2.29,2.72a1.7,1.7,0,0,1-1.29,2.8,1.74,1.74,0,0,1-1.31-.6L119.57,77A1.7,1.7,0,0,1,119.77,74.56Zm-.53,10.73a1.69,1.69,0,0,1,2.4-.08l2.76,2.59a1.69,1.69,0,0,1,.07,2.4,1.67,1.67,0,0,1-1.24.54,1.69,1.69,0,0,1-1.16-.46l-2.75-2.59A1.69,1.69,0,0,1,119.24,85.29Zm-.51,11a1.7,1.7,0,0,1,2.35-.52l3.2,2a1.7,1.7,0,1,1-1.82,2.87l-3.2-2A1.7,1.7,0,0,1,118.73,96.29Zm-.39,11.19a1.7,1.7,0,0,1,2.17-1l3.53,1.24a1.7,1.7,0,0,1-.57,3.31,1.54,1.54,0,0,1-.56-.1l-3.53-1.24A1.7,1.7,0,0,1,118.34,107.48Zm-.16,11.26a1.68,1.68,0,0,1,1.86-1.52l3.66.38a1.7,1.7,0,0,1-.17,3.39h-.18l-3.66-.38A1.69,1.69,0,0,1,118.18,118.74Zm-8.33,43.53,2-4.25a1.7,1.7,0,0,1,3.07,1.47l-2,4.25a1.7,1.7,0,0,1-1.54,1,1.77,1.77,0,0,1-.73-.17A1.71,1.71,0,0,1,109.85,162.27Zm-.32-9a1.69,1.69,0,0,1-.12-2.4l2.72-3a1.7,1.7,0,1,1,2.52,2.28l-2.72,3a1.7,1.7,0,0,1-2.4.12Zm1.26,20.39,1-5.29a1.7,1.7,0,0,1,3.35.62l-1,5.3a1.7,1.7,0,0,1-1.67,1.39l-.32,0A1.69,1.69,0,0,1,110.79,173.63Zm3.56-33-3.11,1.83a1.7,1.7,0,0,1-1.73-2.93l3.12-1.84a1.7,1.7,0,0,1,1.72,2.94Zm-4.79,59a1.69,1.69,0,0,1,2.39.2l3.6,4.24a1.7,1.7,0,0,1-1.3,2.8,1.66,1.66,0,0,1-1.29-.6l-3.6-4.24A1.7,1.7,0,0,1,109.56,199.67Zm5.16-3a1.81,1.81,0,0,1-.64.12,1.71,1.71,0,0,1-1.58-1.06l-2.2-5.5a1.7,1.7,0,0,1,3.15-1.27l2.21,5.5A1.7,1.7,0,0,1,114.72,196.71Zm-.79-10.3h-.14a1.7,1.7,0,0,1-1.69-1.57l-.46-5.86a1.7,1.7,0,1,1,3.39-.26l.46,5.85A1.7,1.7,0,0,1,113.93,186.41Zm-.09-55.36-3.32.58-.3,0a1.7,1.7,0,0,1-.29-3.37l3.33-.59a1.7,1.7,0,0,1,.58,3.36ZM110.77,22.4a1.7,1.7,0,0,1,2.4.14l1.25,1.4a1.7,1.7,0,0,1-.14,2.4,1.7,1.7,0,0,1-2.4-.14l-1.25-1.4A1.71,1.71,0,0,1,110.77,22.4Zm0,10.51a1.7,1.7,0,0,1,2.4.18l1.27,1.48a1.69,1.69,0,0,1-.18,2.4,1.71,1.71,0,0,1-2.4-.18l-1.27-1.48A1.71,1.71,0,0,1,110.76,32.91Zm-.05,10.39a1.7,1.7,0,0,1,2.39.31l1.36,1.75a1.69,1.69,0,0,1-1.35,2.74,1.67,1.67,0,0,1-1.34-.66l-1.36-1.75A1.71,1.71,0,0,1,110.71,43.3Zm-.07,10.36a1.7,1.7,0,0,1,2.37.43l1.47,2.13a1.7,1.7,0,1,1-2.79,1.94L110.21,56A1.7,1.7,0,0,1,110.64,53.66ZM110.51,64a1.7,1.7,0,0,1,2.35.51l1.63,2.56a1.69,1.69,0,0,1-1.43,2.61,1.68,1.68,0,0,1-1.43-.78L110,66.37A1.71,1.71,0,0,1,110.51,64Zm-.27,10.47a1.71,1.71,0,0,1,2.36.47l1.89,2.81a1.7,1.7,0,0,1-.46,2.36,1.7,1.7,0,0,1-2.36-.46l-1.9-2.82A1.71,1.71,0,0,1,110.24,74.49ZM109.7,85.2a1.71,1.71,0,0,1,2.4.18l2.35,2.74a1.7,1.7,0,1,1-2.58,2.21l-2.35-2.73A1.71,1.71,0,0,1,109.7,85.2Zm-.53,11a1.69,1.69,0,0,1,2.38-.28l2.84,2.23a1.7,1.7,0,0,1-2.1,2.68l-2.84-2.24A1.7,1.7,0,0,1,109.17,96.18Zm-.45,11.23a1.7,1.7,0,0,1,2.24-.87l3.21,1.42a1.7,1.7,0,0,1-1.38,3.11l-3.2-1.42A1.7,1.7,0,0,1,108.72,107.41Zm-.21,11.35a1.69,1.69,0,0,1,1.92-1.44l3.35.47a1.7,1.7,0,0,1-.23,3.38h-.24l-3.36-.48A1.69,1.69,0,0,1,108.51,118.76ZM99.72,139.7l2.68-1.94a1.7,1.7,0,0,1,2,2.76l-2.68,1.94a1.72,1.72,0,0,1-2.38-.38A1.71,1.71,0,0,1,99.72,139.7Zm-.83-9.21a1.69,1.69,0,0,1,1.24-2.06l3-.74a1.7,1.7,0,1,1,.82,3.3l-3,.74a2,2,0,0,1-.41.05A1.7,1.7,0,0,1,98.89,130.49Zm1.24,31.91,1.51-4.07a1.7,1.7,0,1,1,3.19,1.19l-1.52,4.07a1.7,1.7,0,1,1-3.18-1.19Zm-.12-9a1.71,1.71,0,0,1-.37-2.38l2.22-3a1.7,1.7,0,0,1,2.74,2l-2.21,3a1.72,1.72,0,0,1-1.38.69A1.62,1.62,0,0,1,100,153.41Zm1,20.28.5-4.91a1.7,1.7,0,1,1,3.38.34l-.49,4.91a1.7,1.7,0,0,1-1.69,1.53h-.18A1.71,1.71,0,0,1,101.06,173.69Zm-1.53,26.69a1.69,1.69,0,0,1,2.4-.08l3.68,3.42a1.7,1.7,0,1,1-2.32,2.49l-3.68-3.42A1.71,1.71,0,0,1,99.53,200.38Zm5.56-4a1.7,1.7,0,0,1-2.29-.73l-2.46-4.75a1.7,1.7,0,1,1,3-1.56l2.46,4.75A1.7,1.7,0,0,1,105.09,196.42Zm-.8-10.18-.28,0a1.69,1.69,0,0,1-1.67-1.43l-.87-5.27a1.7,1.7,0,0,1,3.36-.55l.86,5.28A1.7,1.7,0,0,1,104.29,186.24ZM101.12,22.32a1.69,1.69,0,0,1,2.36.44l1,1.42a1.7,1.7,0,1,1-2.8,1.92l-1-1.42A1.69,1.69,0,0,1,101.12,22.32Zm0,10.51a1.7,1.7,0,0,1,2.36.47l1,1.5a1.71,1.71,0,0,1-2.84,1.89l-1-1.5A1.7,1.7,0,0,1,101.11,32.83Zm0,10.42a1.71,1.71,0,0,1,2.34.58l1.06,1.74a1.72,1.72,0,0,1-.58,2.34,1.74,1.74,0,0,1-.88.24,1.69,1.69,0,0,1-1.45-.82l-1.06-1.74A1.7,1.7,0,0,1,101.07,43.25ZM101,53.65a1.7,1.7,0,0,1,2.32.65l1.17,2.09a1.7,1.7,0,0,1-.66,2.31,1.66,1.66,0,0,1-.83.22,1.69,1.69,0,0,1-1.48-.87L100.34,56A1.69,1.69,0,0,1,101,53.65Zm-.13,10.4a1.69,1.69,0,0,1,2.3.7l1.31,2.45a1.7,1.7,0,0,1-.7,2.3,1.64,1.64,0,0,1-.8.2,1.71,1.71,0,0,1-1.5-.9l-1.31-2.45A1.7,1.7,0,0,1,100.86,64.05Zm-.28,10.49a1.69,1.69,0,0,1,2.32.62l1.57,2.7a1.71,1.71,0,0,1-.62,2.33,1.75,1.75,0,0,1-.85.23,1.7,1.7,0,0,1-1.47-.85L100,76.86A1.7,1.7,0,0,1,100.58,74.54ZM100,85.23a1.7,1.7,0,0,1,2.39.32l2,2.65a1.69,1.69,0,0,1-.32,2.38,1.65,1.65,0,0,1-1,.35,1.69,1.69,0,0,1-1.35-.67l-2-2.65A1.7,1.7,0,0,1,100,85.23Zm-.53,11a1.71,1.71,0,0,1,2.4-.16l2.51,2.21a1.7,1.7,0,0,1-1.12,3,1.72,1.72,0,0,1-1.12-.42l-2.51-2.21A1.7,1.7,0,0,1,99.51,96.18ZM99,107.44a1.68,1.68,0,0,1,2.26-.8l2.89,1.37a1.7,1.7,0,0,1-.73,3.23,1.75,1.75,0,0,1-.73-.16l-2.89-1.37A1.69,1.69,0,0,1,99,107.44ZM98.8,118.9a1.69,1.69,0,0,1,1.89-1.48l3,.36a1.7,1.7,0,0,1-.2,3.39h-.2l-3-.37A1.69,1.69,0,0,1,98.8,118.9Zm-3.27,76.69a1.66,1.66,0,0,1-1,.29,1.7,1.7,0,0,1-1.41-.74l-2.66-3.9a1.7,1.7,0,0,1,2.81-1.91l2.66,3.9A1.69,1.69,0,0,1,95.53,195.59Zm-5.54-56,2.19-2A1.7,1.7,0,1,1,94.5,140l-2.19,2A1.7,1.7,0,1,1,90,139.55Zm-.64-9.12a1.69,1.69,0,0,1,1-2.18l2.55-.93a1.7,1.7,0,0,1,1.17,3.19l-2.55.93a1.71,1.71,0,0,1-.59.11A1.7,1.7,0,0,1,89.35,130.43Zm.62,20.4,1.7-2.94a1.7,1.7,0,1,1,2.94,1.7l-1.69,2.94a1.71,1.71,0,0,1-1.48.85,1.74,1.74,0,0,1-.84-.23A1.69,1.69,0,0,1,90,150.83Zm1.46,18a1.7,1.7,0,0,1,1.7-1.69h0a1.7,1.7,0,0,1,1.69,1.71l0,4.42A1.71,1.71,0,0,1,93.1,175h0a1.72,1.72,0,0,1-1.7-1.71Zm-.94-6.77,1-3.79a1.7,1.7,0,1,1,3.29.85l-1,3.79a1.71,1.71,0,0,1-1.65,1.28,1.65,1.65,0,0,1-.43-.06A1.69,1.69,0,0,1,90.49,162.11Zm4.23,23.44a1.67,1.67,0,0,1-.44.06,1.7,1.7,0,0,1-1.64-1.26l-1.24-4.58a1.7,1.7,0,0,1,3.29-.89l1.23,4.58A1.7,1.7,0,0,1,94.72,185.55ZM91.44,22.21a1.7,1.7,0,0,1,2.33.59L94.5,24a1.72,1.72,0,0,1-.58,2.34,1.77,1.77,0,0,1-.88.24,1.72,1.72,0,0,1-1.46-.83l-.73-1.22A1.71,1.71,0,0,1,91.44,22.21Zm0,10.52a1.7,1.7,0,0,1,2.33.59l.77,1.29a1.7,1.7,0,1,1-2.93,1.73l-.76-1.28A1.7,1.7,0,0,1,91.41,32.73Zm0,10.42a1.7,1.7,0,0,1,2.31.67l.82,1.51a1.71,1.71,0,0,1-.67,2.31,1.72,1.72,0,0,1-.82.21A1.69,1.69,0,0,1,91.53,47l-.83-1.5A1.71,1.71,0,0,1,91.38,43.15Zm-.09,10.39a1.7,1.7,0,0,1,2.29.74l.94,1.82a1.71,1.71,0,0,1-.74,2.29,1.66,1.66,0,0,1-.78.19,1.71,1.71,0,0,1-1.51-.92l-.94-1.83A1.7,1.7,0,0,1,91.29,53.54ZM91.15,64a1.69,1.69,0,0,1,2.28.75l1.09,2.16a1.7,1.7,0,0,1-.75,2.28,1.77,1.77,0,0,1-.77.18,1.7,1.7,0,0,1-1.52-.93l-1.09-2.16A1.7,1.7,0,0,1,91.15,64Zm-.29,10.49a1.69,1.69,0,0,1,2.32.64l1.34,2.39a1.7,1.7,0,0,1-3,1.67l-1.34-2.39A1.7,1.7,0,0,1,90.86,74.44Zm-.53,10.68a1.7,1.7,0,0,1,2.39.32l1.78,2.34a1.7,1.7,0,1,1-2.7,2.06L90,87.5A1.7,1.7,0,0,1,90.33,85.12Zm-.51,10.94a1.71,1.71,0,0,1,2.4-.19l2.25,1.91a1.7,1.7,0,0,1,.19,2.4,1.68,1.68,0,0,1-2.39.19L90,98.46A1.7,1.7,0,0,1,89.82,96.06Zm-.47,11.28a1.71,1.71,0,0,1,2.23-.9l2.6,1.11a1.71,1.71,0,0,1-.67,3.27,1.79,1.79,0,0,1-.67-.14l-2.59-1.11A1.69,1.69,0,0,1,89.35,107.34Zm1.59,9.88,2.68.11a1.7,1.7,0,0,1-.07,3.4h-.07l-2.68-.11a1.7,1.7,0,0,1-1.63-1.77A1.73,1.73,0,0,1,90.94,117.22Zm-8.09,49.94a1.71,1.71,0,0,1,1.87,1.52l.38,3.85a1.7,1.7,0,0,1-1.52,1.86h-.17a1.71,1.71,0,0,1-1.69-1.53L81.33,169A1.7,1.7,0,0,1,82.85,167.16Zm-2-5.4.52-3.42a1.7,1.7,0,0,1,3.36.51l-.52,3.43a1.7,1.7,0,0,1-1.68,1.44l-.26,0A1.69,1.69,0,0,1,80.81,161.76Zm3.45-31.82-2.1,1.16a1.72,1.72,0,0,1-.82.21,1.7,1.7,0,0,1-.82-3.19l2.1-1.16a1.7,1.7,0,1,1,1.64,3Zm-4,9.45L82,137.31a1.7,1.7,0,0,1,2.62,2.17l-1.71,2.08a1.71,1.71,0,0,1-1.31.61,1.7,1.7,0,0,1-1.31-2.78Zm0,11.19,1.2-2.78a1.7,1.7,0,0,1,3.12,1.36l-1.2,2.78a1.71,1.71,0,0,1-1.56,1,1.8,1.8,0,0,1-.68-.14A1.7,1.7,0,0,1,80.27,150.58Zm.6,38.58a1.69,1.69,0,0,1,2.4.1l2.77,3a1.7,1.7,0,0,1-2.51,2.3l-2.76-3A1.7,1.7,0,0,1,80.87,189.16Zm4.26-4.38a1.57,1.57,0,0,1-.63.12,1.68,1.68,0,0,1-1.58-1.07L81.39,180a1.7,1.7,0,0,1,3.16-1.26l1.53,3.82A1.7,1.7,0,0,1,85.13,184.78ZM81.53,22.24a1.7,1.7,0,0,1,2.35.52l.54.85a1.7,1.7,0,0,1-2.86,1.83L81,24.59A1.71,1.71,0,0,1,81.53,22.24Zm0,10.48a1.69,1.69,0,0,1,2.34.54l.58.92a1.71,1.71,0,0,1-.54,2.35,1.74,1.74,0,0,1-.9.26A1.72,1.72,0,0,1,81.55,36L81,35.06A1.69,1.69,0,0,1,81.52,32.72Zm0,10.41a1.7,1.7,0,0,1,2.32.62l.65,1.11a1.71,1.71,0,0,1-.62,2.33,1.65,1.65,0,0,1-.85.23,1.7,1.7,0,0,1-1.48-.85l-.64-1.11A1.7,1.7,0,0,1,81.49,43.13Zm-.1,10.41a1.7,1.7,0,0,1,2.31.65l.78,1.39a1.7,1.7,0,0,1-.65,2.32,1.66,1.66,0,0,1-.83.22,1.73,1.73,0,0,1-1.49-.87l-.78-1.4A1.7,1.7,0,0,1,81.39,53.54Zm-.15,10.4a1.69,1.69,0,0,1,2.31.65l1,1.7a1.72,1.72,0,0,1-.66,2.32,1.76,1.76,0,0,1-.83.21A1.69,1.69,0,0,1,81.54,68l-1-1.7A1.7,1.7,0,0,1,81.24,63.94ZM81,74.43a1.7,1.7,0,0,1,2.35.52l1.21,1.91A1.71,1.71,0,0,1,84,79.21a1.68,1.68,0,0,1-.91.26,1.72,1.72,0,0,1-1.44-.79l-1.21-1.91A1.7,1.7,0,0,1,81,74.43Zm-.5,10.69a1.7,1.7,0,0,1,2.4.16l1.61,1.86a1.68,1.68,0,0,1-.16,2.39,1.7,1.7,0,0,1-2.4-.16l-1.62-1.85A1.7,1.7,0,0,1,80.46,85.12ZM80,96.1a1.69,1.69,0,0,1,2.37-.41l2,1.43a1.7,1.7,0,1,1-2,2.78l-2-1.43A1.7,1.7,0,0,1,80,96.1Zm-.39,11.31a1.7,1.7,0,0,1,2.1-1.16l2.31.67a1.7,1.7,0,0,1-.47,3.33,1.84,1.84,0,0,1-.47-.06l-2.31-.67A1.7,1.7,0,0,1,79.59,107.41ZM81,117.05l2.32-.24a1.68,1.68,0,0,1,1.87,1.51,1.7,1.7,0,0,1-1.51,1.87l-2.33.24h-.18a1.7,1.7,0,0,1-.17-3.39ZM70.68,128l1.64-1.3a1.7,1.7,0,1,1,2.11,2.66l-1.64,1.31a1.74,1.74,0,0,1-1.06.36,1.7,1.7,0,0,1-1-3ZM70,119.06a1.7,1.7,0,0,1,1.11-2.13l1.88-.6a1.7,1.7,0,0,1,1,3.24l-1.88.6a1.88,1.88,0,0,1-.52.08A1.7,1.7,0,0,1,70,119.06Zm.5,20.14,1.24-2A1.7,1.7,0,1,1,74.61,139l-1.24,2a1.7,1.7,0,0,1-2.88-1.81Zm4.07,9.61-.77,2.51a1.71,1.71,0,0,1-1.63,1.2,1.8,1.8,0,0,1-.5-.08,1.7,1.7,0,0,1-1.12-2.13l.78-2.5a1.7,1.7,0,1,1,3.24,1Zm.06,9.81-.14,3a1.71,1.71,0,0,1-1.7,1.62h-.09a1.69,1.69,0,0,1-1.61-1.78l.14-3a1.7,1.7,0,1,1,3.4.17Zm-3.83,31a1.7,1.7,0,0,1,2.39-.32l2.74,2.09a1.7,1.7,0,0,1-1,3.05,1.67,1.67,0,0,1-1-.35L71.11,192A1.7,1.7,0,0,1,70.79,189.61Zm4.65-5.56a1.63,1.63,0,0,1-.82.22,1.71,1.71,0,0,1-1.49-.87l-1.7-3a1.7,1.7,0,1,1,3-1.66l1.7,3A1.7,1.7,0,0,1,75.44,184.05ZM74,173.79a2.2,2.2,0,0,1-.36,0A1.71,1.71,0,0,1,72,172.48l-.68-3.24a1.7,1.7,0,0,1,3.33-.7l.68,3.23A1.71,1.71,0,0,1,74,173.79ZM71.67,22.15a1.7,1.7,0,0,1,2.38.36l.3.4A1.71,1.71,0,0,1,74,25.29a1.68,1.68,0,0,1-1,.34,1.7,1.7,0,0,1-1.37-.69l-.3-.41A1.7,1.7,0,0,1,71.67,22.15Zm0,10.49A1.71,1.71,0,0,1,74,33l.33.46a1.7,1.7,0,1,1-2.75,2L71.27,35A1.7,1.7,0,0,1,71.65,32.64Zm-.06,10.43A1.7,1.7,0,0,1,74,43.5l.43.63a1.7,1.7,0,1,1-2.79,1.94l-.44-.64A1.69,1.69,0,0,1,71.59,43.07Zm-.12,10.42a1.7,1.7,0,0,1,2.37.45l.59.87a1.7,1.7,0,0,1-2.81,1.92L71,55.86A1.71,1.71,0,0,1,71.47,53.49Zm-.18,10.43a1.71,1.71,0,0,1,2.37.41l.8,1.14a1.7,1.7,0,0,1-.41,2.37,1.77,1.77,0,0,1-1,.31,1.68,1.68,0,0,1-1.39-.73l-.8-1.13A1.71,1.71,0,0,1,71.29,63.92ZM71,74.45a1.71,1.71,0,0,1,2.4.23L74.46,76a1.7,1.7,0,0,1-2.63,2.16l-1.07-1.29A1.72,1.72,0,0,1,71,74.45Zm-.47,10.77a1.7,1.7,0,0,1,2.4-.2l1.42,1.21a1.7,1.7,0,0,1-1.1,3,1.65,1.65,0,0,1-1.1-.41l-1.42-1.21A1.69,1.69,0,0,1,70.52,85.22Zm-.39,11a1.71,1.71,0,0,1,2.26-.83l1.76.81a1.7,1.7,0,1,1-1.43,3.09L71,98.53A1.7,1.7,0,0,1,70.13,96.27Zm1.58,9.79,1.93.14a1.7,1.7,0,0,1-.12,3.4h-.13l-1.94-.14a1.7,1.7,0,1,1,.26-3.39Zm-6,77.31a1.71,1.71,0,0,1-2.39-.31l-1.79-2.31a1.7,1.7,0,0,1,2.7-2.08L66.05,181A1.7,1.7,0,0,1,65.75,183.37ZM60.85,128l1.21-1.34A1.7,1.7,0,1,1,64.58,129l-1.21,1.34a1.68,1.68,0,0,1-1.26.56,1.74,1.74,0,0,1-1.14-.44A1.7,1.7,0,0,1,60.85,128Zm.3-11,1.42-.84a1.7,1.7,0,0,1,1.73,2.93l-1.42.84a1.68,1.68,0,0,1-.86.23,1.7,1.7,0,0,1-.87-3.16Zm-.41,22.1.87-1.83a1.7,1.7,0,1,1,3.07,1.46l-.87,1.83a1.7,1.7,0,0,1-1.54,1,1.75,1.75,0,0,1-.73-.16A1.7,1.7,0,0,1,60.74,139.12Zm0,11,.46-2.24a1.7,1.7,0,1,1,3.33.69l-.46,2.24a1.69,1.69,0,0,1-1.66,1.35l-.35,0A1.7,1.7,0,0,1,60.78,150.16Zm2,6.7a1.68,1.68,0,0,1,1.77,1.62l.12,2.57a1.7,1.7,0,0,1-1.63,1.77H63a1.7,1.7,0,0,1-1.7-1.62l-.11-2.57A1.69,1.69,0,0,1,62.83,156.86Zm1.5,16.42a1.59,1.59,0,0,1-.53.08,1.69,1.69,0,0,1-1.61-1.17l-.88-2.67a1.7,1.7,0,1,1,3.23-1.06l.88,2.67A1.71,1.71,0,0,1,64.33,173.28ZM61.77,22.42a1.69,1.69,0,0,1,2.39.13l0,0A1.71,1.71,0,0,1,64,25a1.71,1.71,0,0,1-2.27-2.55Zm2.33,13a1.66,1.66,0,0,1-1.17.47,1.69,1.69,0,0,1-1.24-.53,1.74,1.74,0,0,1,0-2.43,1.67,1.67,0,0,1,2.38,0l.06.07A1.7,1.7,0,0,1,64.1,35.46Zm-2.5,7.92a1.71,1.71,0,0,1,2.41.07l.18.19A1.7,1.7,0,0,1,61.71,46l-.18-.2A1.7,1.7,0,0,1,61.6,43.38Zm-.13,10.43a1.69,1.69,0,0,1,2.4.06l.36.38a1.69,1.69,0,0,1-.06,2.4,1.66,1.66,0,0,1-1.17.47,1.69,1.69,0,0,1-1.23-.53l-.36-.38A1.69,1.69,0,0,1,61.47,53.81Zm-.2,10.46a1.71,1.71,0,0,1,2.41,0l.58.57a1.7,1.7,0,0,1-1.19,2.91,1.68,1.68,0,0,1-1.2-.49l-.58-.58A1.69,1.69,0,0,1,61.27,64.27ZM61,74.83a1.7,1.7,0,0,1,2.39-.23l.85.7a1.7,1.7,0,1,1-2.16,2.62l-.84-.69A1.7,1.7,0,0,1,61,74.83ZM60.55,85.7a1.7,1.7,0,0,1,2.28-.77l1.17.58a1.7,1.7,0,0,1-.75,3.22,1.68,1.68,0,0,1-.75-.17L61.33,88A1.71,1.71,0,0,1,60.55,85.7Zm-.23,11.12a1.71,1.71,0,0,1,2-1.42l1.41.23A1.7,1.7,0,0,1,63.42,99a1.23,1.23,0,0,1-.27,0l-1.42-.23A1.69,1.69,0,0,1,60.32,96.82Zm1.29,9.3,1.51-.31a1.7,1.7,0,1,1,.7,3.33l-1.51.31a1.39,1.39,0,0,1-.35,0,1.7,1.7,0,0,1-.35-3.37ZM56,182.78a1.7,1.7,0,0,1-2.4.07l-1.79-1.7a1.7,1.7,0,0,1,2.34-2.47l1.79,1.7A1.69,1.69,0,0,1,56,182.78Zm-1.36-9.91a1.68,1.68,0,0,1-.69.15,1.72,1.72,0,0,1-1.56-1l-1-2.19a1.7,1.7,0,1,1,3.11-1.39l1,2.19A1.7,1.7,0,0,1,54.63,172.87ZM51,128.1l.84-1.28a1.7,1.7,0,0,1,2.85,1.85L53.89,130A1.7,1.7,0,0,1,51,128.1Zm.19-10.93,1-.93a1.7,1.7,0,1,1,2.33,2.48l-1,.93a1.72,1.72,0,0,1-1.16.46,1.67,1.67,0,0,1-1.24-.54A1.7,1.7,0,0,1,51.23,117.17ZM51,139.08l.58-1.64a1.7,1.7,0,1,1,3.21,1.13l-.58,1.64a1.72,1.72,0,0,1-1.61,1.14,1.58,1.58,0,0,1-.56-.1A1.7,1.7,0,0,1,51,139.08Zm0,11,.24-1.95a1.7,1.7,0,0,1,3.38.42l-.24,1.94a1.7,1.7,0,0,1-1.69,1.5h-.21A1.71,1.71,0,0,1,51,150ZM52.71,157a1.7,1.7,0,0,1,1.91,1.47l.28,2.19a1.7,1.7,0,0,1-1.47,1.91h-.22a1.69,1.69,0,0,1-1.68-1.48l-.29-2.19A1.71,1.71,0,0,1,52.71,157ZM51.31,23.34a1.6,1.6,0,0,1,.1-.31,1.4,1.4,0,0,1,.15-.3,2.75,2.75,0,0,1,.22-.26,1.76,1.76,0,0,1,2.4,0,1.71,1.71,0,0,1,.21.26,1.08,1.08,0,0,1,.16.3,1.6,1.6,0,0,1,.1.31,1.87,1.87,0,0,1,0,.34,1.71,1.71,0,0,1-.5,1.2,1.33,1.33,0,0,1-.26.21c-.09.06-.19.1-.29.16a1.68,1.68,0,0,1-.32.09,1.24,1.24,0,0,1-.33,0,1.71,1.71,0,0,1-1.7-1.7A1.87,1.87,0,0,1,51.31,23.34Zm0,10.49a3,3,0,0,1,.1-.32,1.64,1.64,0,0,1,.16-.29,1.33,1.33,0,0,1,.21-.26,1.74,1.74,0,0,1,1.53-.48l.32.11a1.43,1.43,0,0,1,.3.16,1.71,1.71,0,0,1,.26.21,1.83,1.83,0,0,1,.21.26,1.59,1.59,0,0,1,.15.29,1.19,1.19,0,0,1,.1.32,1.84,1.84,0,0,1,0,.33,1.58,1.58,0,0,1,0,.32,1.15,1.15,0,0,1-.1.33,2.1,2.1,0,0,1-.15.3,2.52,2.52,0,0,1-.21.25,1.72,1.72,0,0,1-1.21.5,1.7,1.7,0,0,1-1.2-.5,1.64,1.64,0,0,1-.21-.25,2.19,2.19,0,0,1-.16-.3,2.58,2.58,0,0,1-.1-.33,1.58,1.58,0,0,1,0-.32A1.84,1.84,0,0,1,51.3,33.83Zm.44,9.61a1.79,1.79,0,0,1,2.41,0,1.76,1.76,0,0,1,.5,1.22,1.71,1.71,0,0,1-1.7,1.7,1.24,1.24,0,0,1-.33,0,1.68,1.68,0,0,1-.32-.09l-.3-.16a1.71,1.71,0,0,1-.26-.21,1.75,1.75,0,0,1-.49-1.2A1.8,1.8,0,0,1,51.74,43.44Zm-.15,10.64A1.67,1.67,0,0,1,54,53.8l0,0a1.7,1.7,0,1,1-2.12,2.65A1.71,1.71,0,0,1,51.59,54.08ZM51.3,64.65a1.71,1.71,0,0,1,2.35-.53l.27.17a1.7,1.7,0,0,1-.9,3.14,1.68,1.68,0,0,1-.91-.26L51.84,67A1.71,1.71,0,0,1,51.3,64.65ZM51,75.33a1.7,1.7,0,0,1,2.24-.87l.53.23A1.7,1.7,0,0,1,53.11,78a1.8,1.8,0,0,1-.68-.14l-.54-.24A1.69,1.69,0,0,1,51,75.33Zm-.31,11a1.7,1.7,0,0,1,1.95-1.41l.8.12a1.7,1.7,0,0,1-.26,3.38,1.23,1.23,0,0,1-.27,0l-.8-.12A1.71,1.71,0,0,1,50.71,86.28Zm1.37,9.19,1-.17a1.7,1.7,0,1,1,.58,3.35l-1,.17a1.43,1.43,0,0,1-.29,0,1.7,1.7,0,0,1-.29-3.38Zm-.52,10.8,1-.55a1.7,1.7,0,1,1,1.59,3l-1.05.56a1.79,1.79,0,0,1-.8.2,1.69,1.69,0,0,1-1.5-.91A1.7,1.7,0,0,1,51.56,106.27Zm-5.41,76.12a1.7,1.7,0,0,1-1.38.71,1.67,1.67,0,0,1-1-.32l-1.72-1.23a1.7,1.7,0,1,1,2-2.77L45.76,180A1.69,1.69,0,0,1,46.15,182.39Zm-1.28-9.77a1.76,1.76,0,0,1-.83.21,1.69,1.69,0,0,1-1.49-.87l-1-1.81a1.7,1.7,0,0,1,3-1.66l1,1.81A1.7,1.7,0,0,1,44.87,172.62ZM41.18,139.1l.39-1.45a1.7,1.7,0,0,1,3.29.88L44.47,140a1.72,1.72,0,0,1-1.65,1.25,1.67,1.67,0,0,1-1.64-2.14Zm.07-10.93.58-1.14a1.7,1.7,0,1,1,3,1.55l-.58,1.14a1.7,1.7,0,0,1-1.52.93,1.65,1.65,0,0,1-.77-.19A1.71,1.71,0,0,1,41.25,128.17Zm0,20.14a1.7,1.7,0,1,1,3.39.2l-.1,1.72a1.71,1.71,0,0,1-1.7,1.6h-.1a1.7,1.7,0,0,1-1.6-1.8Zm1.36,8.8a1.7,1.7,0,0,1,2,1.34l.38,1.91a1.71,1.71,0,0,1-1.34,2l-.33,0A1.7,1.7,0,0,1,41.7,161l-.38-1.91A1.7,1.7,0,0,1,42.66,157.11Zm2.09-38.59-.67.87a1.7,1.7,0,0,1-2.7-2.07l.67-.87a1.7,1.7,0,0,1,2.7,2.07Zm-.24-10.06-.68.59a1.68,1.68,0,0,1-1.12.42,1.66,1.66,0,0,1-1.28-.58,1.7,1.7,0,0,1,.16-2.4l.68-.59a1.7,1.7,0,1,1,2.24,2.56Zm-.44-10-.61.29a1.63,1.63,0,0,1-.74.17A1.7,1.7,0,0,1,42,95.64l.61-.29a1.7,1.7,0,1,1,1.48,3.06ZM41.39,23.34a1.58,1.58,0,0,1,.09-.31,2.11,2.11,0,0,1,.16-.3,1.71,1.71,0,0,1,.21-.26,1.7,1.7,0,1,1,2.41,2.41,1.71,1.71,0,0,1-.26.21c-.09.06-.19.1-.29.16a1.92,1.92,0,0,1-.32.09,1.24,1.24,0,0,1-.33,0,1.71,1.71,0,0,1-1.71-1.7A1.86,1.86,0,0,1,41.39,23.34ZM41.85,33a1.73,1.73,0,0,1,1.53-.48l.32.11.29.14.26.23a1.33,1.33,0,0,1,.21.26,1.64,1.64,0,0,1,.16.29,3,3,0,0,1,.1.32,1.84,1.84,0,0,1,0,.33,1.66,1.66,0,0,1,0,.32,2.58,2.58,0,0,1-.1.33,1.64,1.64,0,0,1-.16.29,1.71,1.71,0,0,1-.21.26,1.33,1.33,0,0,1-.26.21,1.64,1.64,0,0,1-.29.16l-.32.1a1.83,1.83,0,0,1-.66,0l-.32-.1a1.64,1.64,0,0,1-.29-.16,1.09,1.09,0,0,1-.26-.21,1.71,1.71,0,0,1-.5-1.2A1.7,1.7,0,0,1,41.85,33Zm0,10.48a1.78,1.78,0,0,1,2.41,0,1.76,1.76,0,0,1,.5,1.21,1.71,1.71,0,0,1-1.7,1.7,1.87,1.87,0,0,1-.34,0,2,2,0,0,1-.32-.1,1.59,1.59,0,0,1-.29-.15,2.75,2.75,0,0,1-.26-.22,1.68,1.68,0,0,1-.5-1.2A1.72,1.72,0,0,1,41.83,43.44Zm0,10.49a1.71,1.71,0,0,1,.26-.21,1.64,1.64,0,0,1,.29-.16,2,2,0,0,1,.32-.1,1.89,1.89,0,0,1,.67,0,2,2,0,0,1,.32.1,1.64,1.64,0,0,1,.29.16A1.7,1.7,0,0,1,43,56.83a1.87,1.87,0,0,1-.34,0,1,1,0,0,1-.32-.11,1.11,1.11,0,0,1-.29-.14,2.75,2.75,0,0,1-.26-.22,1.72,1.72,0,0,1-.5-1.2A1.74,1.74,0,0,1,41.81,53.93Zm-.49,11.35c0-.11.06-.21.1-.32a1.64,1.64,0,0,1,.16-.29,1.33,1.33,0,0,1,.21-.26,2.75,2.75,0,0,1,.26-.22l.29-.15.32-.1a1.75,1.75,0,0,1,1.53.47,1.88,1.88,0,0,1,.22.26,1.59,1.59,0,0,1,.15.29,1.31,1.31,0,0,1,.1.32,1.84,1.84,0,0,1,0,.33A1.74,1.74,0,0,1,43.94,67l-.3.16a1.81,1.81,0,0,1-.31.09,2,2,0,0,1-.34,0,1.86,1.86,0,0,1-.33,0,1.68,1.68,0,0,1-.32-.09,2.69,2.69,0,0,1-.29-.16,2.65,2.65,0,0,1-.26-.21,2.39,2.39,0,0,1-.21-.26,1.43,1.43,0,0,1-.16-.3,3,3,0,0,1-.1-.32,1.69,1.69,0,0,1,0-.33A1.84,1.84,0,0,1,41.32,65.28Zm-.14,10.58a1.69,1.69,0,0,1,1.91-1.46l.2,0a1.7,1.7,0,0,1-.22,3.39h-.23l-.2,0A1.69,1.69,0,0,1,41.18,75.86Zm1.29,9.06.44-.07a1.7,1.7,0,1,1,.48,3.37l-.44.06a1,1,0,0,1-.24,0,1.7,1.7,0,0,1-.24-3.38Zm-6.22,97.25a1.69,1.69,0,0,1-2.33.6l-1.65-1A1.7,1.7,0,0,1,34,178.87l1.65,1A1.7,1.7,0,0,1,36.25,182.17ZM35,172.49a1.69,1.69,0,0,1-.91.27,1.72,1.72,0,0,1-1.44-.79l-1-1.6a1.7,1.7,0,0,1,2.87-1.82l1,1.6A1.7,1.7,0,0,1,35,172.49Zm-1.14-10.2A1.73,1.73,0,0,1,31.84,161l-.41-1.74a1.7,1.7,0,1,1,3.31-.78l.41,1.74A1.71,1.71,0,0,1,33.89,162.29Zm-2.52-23.13.28-1.33a1.7,1.7,0,1,1,3.33.69l-.28,1.33A1.69,1.69,0,0,1,33,141.2l-.35,0A1.7,1.7,0,0,1,31.37,139.16Zm.07-10.91.43-1A1.7,1.7,0,1,1,35,128.54l-.42,1A1.71,1.71,0,0,1,33,130.61a1.74,1.74,0,0,1-.66-.14A1.7,1.7,0,0,1,31.44,128.25Zm-.05,20.22a1.7,1.7,0,0,1,3.4.07l0,1.58a1.7,1.7,0,0,1-1.69,1.67h0a1.71,1.71,0,0,1-1.67-1.74Zm3.53-30-.47.77a1.7,1.7,0,0,1-2.9-1.77l.46-.77a1.7,1.7,0,0,1,2.91,1.77Zm-.18-10.11-.45.52a1.66,1.66,0,0,1-1.29.6,1.7,1.7,0,0,1-1.3-2.8l.44-.52a1.7,1.7,0,0,1,2.6,2.2Zm-.35-10.08-.36.27a1.68,1.68,0,0,1-2.38-.33A1.69,1.69,0,0,1,32,95.81l.36-.27a1.7,1.7,0,1,1,2,2.71ZM31.93,22.47a1.76,1.76,0,0,1,2.4,0,1.71,1.71,0,0,1,.21.26,1.08,1.08,0,0,1,.16.3,1.6,1.6,0,0,1,.1.31,1.87,1.87,0,0,1,0,.34,1.71,1.71,0,0,1-.5,1.2,1.64,1.64,0,0,1-.25.21l-.3.16a1.68,1.68,0,0,1-.32.09,1.24,1.24,0,0,1-.33,0,1.74,1.74,0,0,1-1.2-.5,1.7,1.7,0,0,1,0-2.41Zm-.47,11.36a1.19,1.19,0,0,1,.1-.32,1.59,1.59,0,0,1,.15-.29,3,3,0,0,1,.21-.26l.26-.23a2.75,2.75,0,0,1,.3-.14l.32-.11a1.73,1.73,0,0,1,1.53.48,1.33,1.33,0,0,1,.21.26,1.64,1.64,0,0,1,.16.29,1.68,1.68,0,0,1,.09.32,1.24,1.24,0,0,1,0,.33,1.12,1.12,0,0,1,0,.32,1.59,1.59,0,0,1-.09.33,1.64,1.64,0,0,1-.16.29,1.68,1.68,0,0,1-1.41.76,1.84,1.84,0,0,1-.33,0l-.32-.1a2.19,2.19,0,0,1-.3-.16,1.71,1.71,0,0,1-.26-.21l-.21-.26a1.59,1.59,0,0,1-.15-.29,1.15,1.15,0,0,1-.1-.33,1.66,1.66,0,0,1,0-.32A1.84,1.84,0,0,1,31.46,33.83Zm.46,9.61A1.72,1.72,0,0,1,33.45,43l.32.1.3.15a2.76,2.76,0,0,1,.25.21,1.75,1.75,0,0,1,.5,1.21,1.84,1.84,0,0,1,0,.33,2,2,0,0,1-.1.32,2.19,2.19,0,0,1-.16.3,1.27,1.27,0,0,1-.21.25,1.88,1.88,0,0,1-.26.22,1.59,1.59,0,0,1-.29.15,1.19,1.19,0,0,1-.32.1,1.84,1.84,0,0,1-.33,0,1.68,1.68,0,0,1-1.2-.5,1.27,1.27,0,0,1-.21-.25,1.46,1.46,0,0,1-.16-.3,2,2,0,0,1-.1-.32,1.84,1.84,0,0,1,0-.33A1.72,1.72,0,0,1,31.92,43.44Zm0,10.49a1.68,1.68,0,0,1,1.53-.46,1.17,1.17,0,0,1,.32.09,2.69,2.69,0,0,1,.29.16,1.33,1.33,0,0,1,.26.21,1.7,1.7,0,1,1-2.4,0Zm-.48,11.35a1.86,1.86,0,0,1,.1-.31,1.24,1.24,0,0,1,.16-.3,1.33,1.33,0,0,1,.21-.26,1.76,1.76,0,0,1,2.4,0,1.33,1.33,0,0,1,.21.26,1.24,1.24,0,0,1,.16.3,1.86,1.86,0,0,1,.1.31,2,2,0,0,1,0,.34,1.7,1.7,0,0,1-.5,1.2A1.33,1.33,0,0,1,34,67a1.64,1.64,0,0,1-.29.16,1.68,1.68,0,0,1-.32.09,1.24,1.24,0,0,1-.33,0,1.68,1.68,0,0,1-1.2-.5,1.7,1.7,0,0,1-.5-1.2A2,2,0,0,1,31.43,65.28Zm.45,9.62a1.75,1.75,0,0,1,2.41,0,1.68,1.68,0,0,1,.5,1.2,1.24,1.24,0,0,1,0,.33,1.68,1.68,0,0,1-.09.32,2.09,2.09,0,0,1-.16.29,1.33,1.33,0,0,1-.21.26,2.65,2.65,0,0,1-.26.21,1.64,1.64,0,0,1-.29.16l-.32.1a1.84,1.84,0,0,1-.33,0,1.72,1.72,0,0,1-1.21-.5,1.83,1.83,0,0,1-.21-.26,2,2,0,0,1-.15-.29,1.19,1.19,0,0,1-.1-.32,1.84,1.84,0,0,1,0-.33A1.71,1.71,0,0,1,31.88,74.9ZM32.46,85l.21-.06a1.7,1.7,0,0,1,1,3.25l-.2.06a1.81,1.81,0,0,1-.51.08,1.7,1.7,0,0,1-.5-3.33Zm-6.15,97.13a1.69,1.69,0,0,1-1.49.89,1.72,1.72,0,0,1-.82-.21l-1.63-.9a1.7,1.7,0,0,1,1.64-3l1.63.89A1.71,1.71,0,0,1,26.31,182.11Zm-4.78-42.94.25-1.28a1.7,1.7,0,1,1,3.34.65l-.25,1.28a1.7,1.7,0,0,1-1.67,1.38l-.32,0A1.71,1.71,0,0,1,21.53,139.17Zm.09-10.89.37-1a1.7,1.7,0,1,1,3.17,1.22l-.37,1a1.71,1.71,0,0,1-1.59,1.09,1.66,1.66,0,0,1-.61-.12A1.7,1.7,0,0,1,21.62,128.28Zm-.12,20.26a1.71,1.71,0,0,1,1.7-1.7h0a1.71,1.71,0,0,1,1.69,1.72v1.53a1.71,1.71,0,0,1-1.71,1.69h0a1.71,1.71,0,0,1-1.69-1.71Zm1.27,8.75a1.7,1.7,0,0,1,2.07,1.23l.43,1.67A1.7,1.7,0,0,1,24,162.26a1.52,1.52,0,0,1-.42.06A1.71,1.71,0,0,1,22,161l-.43-1.68A1.7,1.7,0,0,1,22.77,157.29Zm2.32-38.86-.41.72a1.7,1.7,0,0,1-1.48.86,1.73,1.73,0,0,1-.84-.22,1.71,1.71,0,0,1-.64-2.32l.41-.72a1.7,1.7,0,1,1,3,1.68Zm-.18-10.12-.37.48a1.7,1.7,0,0,1-2.68-2.1l.38-.48a1.7,1.7,0,1,1,2.67,2.1Zm-.37-10-.28.22a1.7,1.7,0,1,1-2.13-2.65l.28-.23a1.7,1.7,0,0,1,2.13,2.66Zm-3-74.92a1.12,1.12,0,0,1,.1-.31,1.4,1.4,0,0,1,.15-.3,1.71,1.71,0,0,1,.21-.26,1.77,1.77,0,0,1,2.41,0,1.71,1.71,0,0,1,.21.26,2.11,2.11,0,0,1,.16.3,1.58,1.58,0,0,1,.09.31,1.27,1.27,0,0,1,0,.34,1.71,1.71,0,0,1-.5,1.2,1.76,1.76,0,0,1-1.2.5,1.27,1.27,0,0,1-.34,0,1.81,1.81,0,0,1-.31-.09c-.11-.06-.21-.1-.3-.16a1.71,1.71,0,0,1-.26-.21,1.76,1.76,0,0,1-.5-1.2A1.86,1.86,0,0,1,21.54,23.34Zm0,10.49a1.19,1.19,0,0,1,.1-.32,1.59,1.59,0,0,1,.15-.29A1.33,1.33,0,0,1,22,33a1.71,1.71,0,0,1,.26-.21,1.08,1.08,0,0,1,.3-.16l.31-.11a1.76,1.76,0,0,1,1.54.48,1.33,1.33,0,0,1,.21.26,1.64,1.64,0,0,1,.16.29,3,3,0,0,1,.1.32,1.84,1.84,0,0,1,0,.33,1.66,1.66,0,0,1,0,.32,2.58,2.58,0,0,1-.1.33,1.64,1.64,0,0,1-.16.29,1.58,1.58,0,0,1-.47.47,1.18,1.18,0,0,1-.29.16,2,2,0,0,1-.32.1,1.84,1.84,0,0,1-.33,0,2,2,0,0,1-.34,0,1.86,1.86,0,0,1-.31-.1,1.08,1.08,0,0,1-.3-.16,1.58,1.58,0,0,1-.47-.47,1.59,1.59,0,0,1-.15-.29,1.15,1.15,0,0,1-.1-.33,1.65,1.65,0,0,1,0-.32A1.86,1.86,0,0,1,21.54,33.83Zm0,10.49a1.92,1.92,0,0,1,.09-.32,2.69,2.69,0,0,1,.16-.29,2.47,2.47,0,0,1,.21-.27A1.78,1.78,0,0,1,23.54,43l.32.1a2.64,2.64,0,0,1,.29.15l.26.21a2.47,2.47,0,0,1,.21.27,2.69,2.69,0,0,1,.16.29,1.92,1.92,0,0,1,.09.32,1.38,1.38,0,0,1,0,.66,1.92,1.92,0,0,1-.09.32c-.05.1-.1.2-.16.3a1.71,1.71,0,0,1-.21.26,1.73,1.73,0,0,1-2.41,0,1.71,1.71,0,0,1-.21-.26c-.06-.1-.11-.2-.16-.3a1.92,1.92,0,0,1-.09-.32,1.38,1.38,0,0,1,0-.66ZM22,53.93a2.65,2.65,0,0,1,.26-.21,1.4,1.4,0,0,1,.3-.15.87.87,0,0,1,.31-.1,1.89,1.89,0,0,1,.67,0,1,1,0,0,1,.32.1,1.59,1.59,0,0,1,.29.15,2.65,2.65,0,0,1,.26.21,1.7,1.7,0,0,1,0,2.41,2.65,2.65,0,0,1-.26.21,1.64,1.64,0,0,1-.29.16l-.32.1-.33,0a1.87,1.87,0,0,1-.34,0l-.31-.1a1.43,1.43,0,0,1-.3-.16,2.65,2.65,0,0,1-.26-.21,1.7,1.7,0,0,1,0-2.41Zm-.46,11.36a1.68,1.68,0,0,1,.09-.32,2.69,2.69,0,0,1,.16-.29,1.33,1.33,0,0,1,.21-.26,1.75,1.75,0,0,1,2.41,0,1.33,1.33,0,0,1,.21.26,2.69,2.69,0,0,1,.16.29,1.68,1.68,0,0,1,.09.32,1.24,1.24,0,0,1,0,.33A1.68,1.68,0,0,1,24.15,67a1.18,1.18,0,0,1-.29.16,2,2,0,0,1-.32.1,1.84,1.84,0,0,1-.33,0,1.71,1.71,0,0,1-1.71-1.7A1.86,1.86,0,0,1,21.54,65.29Zm0,10.48a1.54,1.54,0,0,1,.1-.33,1.91,1.91,0,0,1,.15-.28A1.71,1.71,0,0,1,22,74.9a1.77,1.77,0,0,1,2.41,0,1.71,1.71,0,0,1,.21.26c.06.09.11.19.16.28a2.34,2.34,0,0,1,.09.33,1.19,1.19,0,0,1,0,.33,1.32,1.32,0,0,1,0,.34,1.81,1.81,0,0,1-.09.31c-.05.11-.1.19-.16.3a1.71,1.71,0,0,1-.21.26,1.73,1.73,0,0,1-2.41,0,1.71,1.71,0,0,1-.21-.26,2.1,2.1,0,0,1-.15-.3,1.24,1.24,0,0,1-.1-.31,2,2,0,0,1,0-.34A1.75,1.75,0,0,1,21.54,75.77Zm.91,9.29.12-.06A1.7,1.7,0,0,1,24,88.11l-.12,0a1.73,1.73,0,0,1-.7.15,1.7,1.7,0,0,1-.69-3.25Zm-.2,83a1.71,1.71,0,0,1,2.36.48l1,1.54a1.71,1.71,0,0,1-1.41,2.64,1.7,1.7,0,0,1-1.43-.77l-1-1.53A1.71,1.71,0,0,1,22.25,168.09Zm3.52,54.06-.95,3.23a1.69,1.69,0,0,1-1.63,1.23,1.59,1.59,0,0,1-.48-.07,1.69,1.69,0,0,1-1.15-2.11l.94-3.23a1.7,1.7,0,0,1,3.27,1Zm.36-9.94-1.44,2.67a1.7,1.7,0,0,1-3-1.62l1.45-2.67a1.7,1.7,0,1,1,3,1.62Zm.06-9.62-1.89,1.63a1.7,1.7,0,1,1-2.22-2.57L24,200a1.7,1.7,0,0,1,2.22,2.57ZM25.47,193l-2,.35-.29,0A1.7,1.7,0,0,1,22.9,190l2-.35a1.7,1.7,0,1,1,.58,3.35Zm10.14,29.19-1,3.26a1.7,1.7,0,0,1-1.62,1.18,1.58,1.58,0,0,1-.52-.09,1.69,1.69,0,0,1-1.1-2.14l1-3.25a1.7,1.7,0,1,1,3.24,1Zm.35-9.91-1.57,2.65a1.68,1.68,0,0,1-2.32.6,1.71,1.71,0,0,1-.61-2.33L33,210.53A1.71,1.71,0,0,1,36,212.26Zm0-9.61-2,1.57a1.7,1.7,0,1,1-2.11-2.67l2-1.57A1.7,1.7,0,0,1,36,202.65Zm-.7-9.63-2.06.25H33a1.7,1.7,0,0,1-.21-3.39l2-.25a1.7,1.7,0,0,1,.42,3.38ZM45.53,222.3l-1.41,3.28a1.7,1.7,0,0,1-1.56,1,1.79,1.79,0,0,1-.67-.14,1.71,1.71,0,0,1-.89-2.24L42.41,221a1.7,1.7,0,1,1,3.12,1.34Zm.29-9.87L43.92,215a1.67,1.67,0,0,1-1.36.68,1.75,1.75,0,0,1-1-.33,1.71,1.71,0,0,1-.35-2.38l1.9-2.56a1.7,1.7,0,0,1,2.38-.35A1.67,1.67,0,0,1,45.82,212.43Zm0-9.58-2.26,1.36a1.77,1.77,0,0,1-.88.24,1.7,1.7,0,0,1-1.46-.82,1.72,1.72,0,0,1,.58-2.34L44,199.93a1.7,1.7,0,0,1,1.76,2.92ZM45,193.12h0l-2.23,0a1.7,1.7,0,0,1,0-3.4h0l2.22,0a1.7,1.7,0,0,1,0,3.4Zm10.47,29.5-2,3.18a1.7,1.7,0,0,1-1.45.81,1.64,1.64,0,0,1-.89-.26,1.69,1.69,0,0,1-.55-2.34l2-3.18a1.7,1.7,0,0,1,2.89,1.79Zm.19-9.81-2.43,2.28a1.7,1.7,0,0,1-1.17.46,1.73,1.73,0,0,1-1.24-.53,1.71,1.71,0,0,1,.08-2.41l2.43-2.28a1.7,1.7,0,0,1,2.33,2.48Zm-.23-9.6-2.66.92a1.76,1.76,0,0,1-.55.09,1.7,1.7,0,0,1-.56-3.31l2.65-.92a1.7,1.7,0,0,1,1.12,3.22ZM56.67,192A1.7,1.7,0,0,1,55,193.36a1.34,1.34,0,0,1-.35,0l-2.45-.51a1.7,1.7,0,0,1,.7-3.33l2.45.51A1.71,1.71,0,0,1,56.67,192Zm8.77,31.21-2.65,2.85a1.71,1.71,0,0,1-1.25.54,1.65,1.65,0,0,1-1.15-.46,1.69,1.69,0,0,1-.09-2.4L63,220.9a1.7,1.7,0,0,1,2.49,2.32Zm0-9.75-3,1.72a1.74,1.74,0,0,1-.84.23,1.7,1.7,0,0,1-.85-3.18l3-1.73a1.7,1.7,0,0,1,1.69,3ZM65,203.76,62,204h-.13a1.7,1.7,0,0,1-.12-3.4l3.07-.21a1.7,1.7,0,0,1,.24,3.39Zm1.48-10.93a1.71,1.71,0,0,1-1.55,1,1.63,1.63,0,0,1-.71-.16l-2.65-1.23a1.7,1.7,0,0,1,1.44-3.08l2.64,1.23A1.71,1.71,0,0,1,66.52,192.83ZM75.28,224,72,226.3a1.65,1.65,0,0,1-1,.31,1.7,1.7,0,0,1-1-3.1l3.28-2.28A1.7,1.7,0,1,1,75.28,224Zm-.16-9.77-3.54,1a1.72,1.72,0,0,1-.44.06,1.7,1.7,0,0,1-.45-3.34l3.54-1a1.7,1.7,0,1,1,.89,3.28ZM76.56,203a1.7,1.7,0,0,1-1.67,1.37l-.33,0-3.37-.66a1.7,1.7,0,0,1,.65-3.34l3.38.66A1.71,1.71,0,0,1,76.56,203Zm8.52,21.76-3.82,1.61a1.7,1.7,0,0,1-1.32-3.13l3.81-1.61a1.7,1.7,0,1,1,1.33,3.13ZM84.75,215l-3.94.1h0a1.7,1.7,0,0,1,0-3.4l4-.1a1.7,1.7,0,1,1,.08,3.4Zm1.64-10.88a1.69,1.69,0,0,1-1.55,1,1.75,1.75,0,0,1-.7-.14l-3.59-1.61a1.7,1.7,0,1,1,1.39-3.11l3.6,1.61A1.7,1.7,0,0,1,86.39,204.1Zm8.36,21.52-4.2.95a2.45,2.45,0,0,1-.38,0,1.7,1.7,0,0,1-.37-3.36L94,222.3a1.7,1.7,0,1,1,.74,3.32Zm1.54-11.28a1.7,1.7,0,0,1-1.67,1.42,1.36,1.36,0,0,1-.29,0L90.11,215a1.7,1.7,0,0,1,.57-3.36l4.22.73A1.7,1.7,0,0,1,96.29,214.34Zm-.22-9.18a1.7,1.7,0,0,1-1.4.74,1.63,1.63,0,0,1-1-.3L90,203.08a1.7,1.7,0,1,1,1.92-2.8l3.68,2.52A1.69,1.69,0,0,1,96.07,205.16Zm8.3,21.25-4.5.2h-.08a1.7,1.7,0,0,1-.07-3.4l4.5-.2a1.69,1.69,0,0,1,1.78,1.62A1.72,1.72,0,0,1,104.37,226.41Zm1.69-11a1.69,1.69,0,0,1-1.6,1.13,1.63,1.63,0,0,1-.57-.1l-4.39-1.58a1.7,1.7,0,1,1,1.15-3.2l4.39,1.58A1.69,1.69,0,0,1,106.06,215.4Zm9.87,9.68a1.7,1.7,0,0,1-1.68,1.53h-.19l-4.72-.5a1.7,1.7,0,1,1,.36-3.38l4.72.49A1.7,1.7,0,0,1,115.93,225.08Zm-.09-9.22a1.69,1.69,0,0,1-1.5.9,1.74,1.74,0,0,1-.8-.19l-4.48-2.38a1.7,1.7,0,0,1,1.6-3l4.48,2.38A1.7,1.7,0,0,1,115.84,215.86Zm9.92,9.42a1.7,1.7,0,0,1-1.65,1.33,1.58,1.58,0,0,1-.38-.05l-4.84-1.09a1.7,1.7,0,1,1,.75-3.32l4.84,1.1A1.69,1.69,0,0,1,125.76,225.28Zm-.23-9.27a1.69,1.69,0,0,1-1.41.75,1.73,1.73,0,0,1-1-.28l-4.43-3a1.7,1.7,0,0,1,1.89-2.83l4.44,3A1.69,1.69,0,0,1,125.53,216Zm10,9.4a1.68,1.68,0,0,1-2.12,1.12L128.59,225a1.7,1.7,0,0,1,1-3.25l4.79,1.49A1.7,1.7,0,0,1,135.5,225.41Zm9.76.07a1.7,1.7,0,0,1-1.6,1.13,1.9,1.9,0,0,1-.57-.1l-4.76-1.71a1.7,1.7,0,0,1,1.15-3.2l4.76,1.71A1.69,1.69,0,0,1,145.26,225.48Zm9.79,0a1.71,1.71,0,0,1-1.59,1.11,1.77,1.77,0,0,1-.6-.11l-4.74-1.78a1.7,1.7,0,0,1,1.2-3.19l4.73,1.78A1.7,1.7,0,0,1,155.05,225.5Zm.09-57.64-1.74,6.49a1.7,1.7,0,0,1-1.64,1.26,1.74,1.74,0,0,1-.45-.06,1.71,1.71,0,0,1-1.2-2.08l1.75-6.5a1.7,1.7,0,1,1,3.28.89Z"/></svg>