<svg id="Layer_1" data-name="Layer 1" xmlns="http://www.w3.org/2000/svg" viewBox="0 0 176.6 248.6"><defs><style>.cls-1{fill:#006981;}</style></defs><path class="cls-1" d="M23.2,25.38a1.24,1.24,0,0,1-.33,0,1.92,1.92,0,0,1-.32-.09c-.1-.06-.2-.1-.29-.16a1.68,1.68,0,0,1-.76-1.41,1.27,1.27,0,0,1,0-.34,1.58,1.58,0,0,1,.09-.31,1.43,1.43,0,0,1,.16-.3,1.71,1.71,0,0,1,.21-.26,2.65,2.65,0,0,1,.26-.21,1.14,1.14,0,0,1,.29-.15,1.19,1.19,0,0,1,.32-.1,1.75,1.75,0,0,1,1.54.46,2.65,2.65,0,0,1,.21.26,1.4,1.4,0,0,1,.15.3,1.12,1.12,0,0,1,.1.31,1.87,1.87,0,0,1,0,.34,1.69,1.69,0,0,1-1.7,1.7Z"/><path class="cls-1" d="M23.2,35.86a1.68,1.68,0,0,1-1.41-.76,2.69,2.69,0,0,1-.16-.29,1.59,1.59,0,0,1-.09-.33,1.12,1.12,0,0,1,0-.32,1.24,1.24,0,0,1,0-.33,1.68,1.68,0,0,1,.09-.32,2.69,2.69,0,0,1,.16-.29A1.33,1.33,0,0,1,22,33a1.71,1.71,0,0,1,.26-.21,1.18,1.18,0,0,1,.29-.16l.32-.11a1.76,1.76,0,0,1,1.54.48,1.83,1.83,0,0,1,.21.26,1.59,1.59,0,0,1,.15.29,1.19,1.19,0,0,1,.1.32,1.84,1.84,0,0,1,0,.33,1.66,1.66,0,0,1,0,.32,1.15,1.15,0,0,1-.1.33,1.59,1.59,0,0,1-.15.29,2.65,2.65,0,0,1-.21.26,1.71,1.71,0,0,1-.26.21,1.24,1.24,0,0,1-.3.16,1.86,1.86,0,0,1-.31.1A2,2,0,0,1,23.2,35.86Z"/><path class="cls-1" d="M23.2,46.35a1.75,1.75,0,0,1-1.2-.49,1.72,1.72,0,0,1-.5-1.21,1.24,1.24,0,0,1,0-.33,1.92,1.92,0,0,1,.09-.32,1.64,1.64,0,0,1,.16-.29,2.47,2.47,0,0,1,.21-.27l.26-.21a2.64,2.64,0,0,1,.29-.15l.32-.1a1.89,1.89,0,0,1,.67,0l.31.1a2.1,2.1,0,0,1,.3.15l.26.21c.07.09.15.18.21.27a1.59,1.59,0,0,1,.15.29,1.31,1.31,0,0,1,.1.32,1.83,1.83,0,0,1,0,.66,1.31,1.31,0,0,1-.1.32,2.1,2.1,0,0,1-.15.3,2.65,2.65,0,0,1-.21.26l-.26.21a1.4,1.4,0,0,1-.3.15,1.24,1.24,0,0,1-.31.1A2,2,0,0,1,23.2,46.35Z"/><path class="cls-1" d="M23.2,56.84A1.7,1.7,0,0,1,22,53.93a2.65,2.65,0,0,1,.26-.21,1.59,1.59,0,0,1,.29-.15,1,1,0,0,1,.32-.1,1.89,1.89,0,0,1,.67,0,.94.94,0,0,1,.31.1,1.68,1.68,0,0,1,.3.15,2.65,2.65,0,0,1,.26.21,1.7,1.7,0,0,1,0,2.41A1.72,1.72,0,0,1,23.2,56.84Z"/><path class="cls-1" d="M23.2,67.32a1.7,1.7,0,0,1-1.2-.5,1.68,1.68,0,0,1-.5-1.2,1.84,1.84,0,0,1,0-.33,3,3,0,0,1,.1-.32,1.64,1.64,0,0,1,.16-.29,1.33,1.33,0,0,1,.21-.26,1.75,1.75,0,0,1,2.41,0,1.83,1.83,0,0,1,.21.26,1.59,1.59,0,0,1,.15.29,1.19,1.19,0,0,1,.1.32,1.84,1.84,0,0,1,0,.33A1.65,1.65,0,0,1,24.15,67a1.24,1.24,0,0,1-.3.16,1.86,1.86,0,0,1-.31.1A2,2,0,0,1,23.2,67.32Z"/><path class="cls-1" d="M23.2,77.8a1.84,1.84,0,0,1-.33,0,1.31,1.31,0,0,1-.32-.1,1.59,1.59,0,0,1-.29-.15,2.65,2.65,0,0,1-.26-.21,1.71,1.71,0,0,1-.21-.26c-.06-.11-.11-.19-.16-.3a1.81,1.81,0,0,1-.09-.31,1.32,1.32,0,0,1,0-.34,1.7,1.7,0,0,1,.5-1.2,1.77,1.77,0,0,1,2.41,0,2.65,2.65,0,0,1,.21.26,1.91,1.91,0,0,1,.15.28,1.54,1.54,0,0,1,.1.33,1.76,1.76,0,0,1,0,.33,2,2,0,0,1,0,.34,1.24,1.24,0,0,1-.1.31,2.1,2.1,0,0,1-.15.3,2.65,2.65,0,0,1-.21.26A1.75,1.75,0,0,1,23.2,77.8Z"/><path class="cls-1" d="M23.14,88.31a1.7,1.7,0,0,1-.69-3.25l.12-.06A1.7,1.7,0,0,1,24,88.11l-.12,0A1.73,1.73,0,0,1,23.14,88.31Z"/><path class="cls-1" d="M23.2,98.86a1.7,1.7,0,0,1-1.07-3l.28-.23a1.7,1.7,0,1,1,2.13,2.66l-.28.22A1.7,1.7,0,0,1,23.2,98.86Z"/><path class="cls-1" d="M23.2,109.44a1.7,1.7,0,0,1-1.34-2.75l.38-.48a1.7,1.7,0,1,1,2.67,2.1l-.37.48A1.7,1.7,0,0,1,23.2,109.44Z"/><path class="cls-1" d="M23.2,120a1.66,1.66,0,0,1-.83-.22,1.7,1.7,0,0,1-.65-2.32l.41-.72a1.7,1.7,0,1,1,3,1.68l-.41.72A1.7,1.7,0,0,1,23.2,120Z"/><path class="cls-1" d="M23.2,130.6a1.66,1.66,0,0,1-.61-.12,1.7,1.7,0,0,1-1-2.2l.37-1a1.7,1.7,0,0,1,3.18,1.22l-.38,1A1.71,1.71,0,0,1,23.2,130.6Z"/><path class="cls-1" d="M23.21,141.2a1.84,1.84,0,0,1-.33,0,1.71,1.71,0,0,1-1.35-2l.25-1.28a1.7,1.7,0,1,1,3.34.65l-.25,1.28A1.7,1.7,0,0,1,23.21,141.2Z"/><path class="cls-1" d="M23.19,151.78h0a1.71,1.71,0,0,1-1.69-1.71v-1.53a1.71,1.71,0,0,1,1.7-1.7h0a1.71,1.71,0,0,1,1.69,1.72v1.53A1.71,1.71,0,0,1,23.19,151.78Z"/><path class="cls-1" d="M23.62,162.32A1.71,1.71,0,0,1,22,161l-.43-1.68a1.7,1.7,0,1,1,3.3-.84l.43,1.68A1.69,1.69,0,0,1,24,162.26,1.52,1.52,0,0,1,23.62,162.32Z"/><path class="cls-1" d="M24.21,172.75a1.67,1.67,0,0,1-1.42-.77l-1-1.53a1.7,1.7,0,0,1,2.84-1.88l1,1.54a1.71,1.71,0,0,1-1.41,2.64Z"/><path class="cls-1" d="M24.82,183a1.72,1.72,0,0,1-.82-.21l-1.63-.9a1.7,1.7,0,0,1,1.64-3l1.63.89a1.71,1.71,0,0,1-.82,3.2Z"/><path class="cls-1" d="M23.19,193.35A1.7,1.7,0,0,1,22.9,190l2-.35a1.7,1.7,0,1,1,.58,3.35l-2,.35Z"/><path class="cls-1" d="M23.19,204.64a1.7,1.7,0,0,1-1.11-3L24,200a1.7,1.7,0,0,1,2.22,2.57l-1.89,1.63A1.69,1.69,0,0,1,23.19,204.64Z"/><path class="cls-1" d="M23.19,215.77a1.7,1.7,0,0,1-1.5-2.51l1.45-2.67a1.7,1.7,0,1,1,3,1.62l-1.44,2.67A1.71,1.71,0,0,1,23.19,215.77Z"/><path class="cls-1" d="M23.19,226.61a1.59,1.59,0,0,1-.48-.07,1.69,1.69,0,0,1-1.15-2.11l.94-3.23a1.7,1.7,0,0,1,3.27,1l-.95,3.23A1.69,1.69,0,0,1,23.19,226.61Z"/><path class="cls-1" d="M33.13,25.38a1.32,1.32,0,0,1-.34,0,1.81,1.81,0,0,1-.31-.09l-.3-.16a1.27,1.27,0,0,1-.25-.21,1.7,1.7,0,0,1-.5-1.2,1.87,1.87,0,0,1,0-.34,1.12,1.12,0,0,1,.1-.31,1.4,1.4,0,0,1,.15-.3,2.75,2.75,0,0,1,.22-.26,1.76,1.76,0,0,1,2.4,0,1.71,1.71,0,0,1,.21.26,1.43,1.43,0,0,1,.16.3,1.58,1.58,0,0,1,.09.31,1.27,1.27,0,0,1,0,.34,1.68,1.68,0,0,1-.76,1.41c-.09.06-.19.1-.29.16a1.68,1.68,0,0,1-.32.09A1.24,1.24,0,0,1,33.13,25.38Z"/><path class="cls-1" d="M33.12,35.86a1.84,1.84,0,0,1-.33,0l-.32-.1a1.64,1.64,0,0,1-.29-.16,1.68,1.68,0,0,1-.76-1.41,1.24,1.24,0,0,1,0-.33,1.68,1.68,0,0,1,.09-.32,2.69,2.69,0,0,1,.16-.29,1.33,1.33,0,0,1,.21-.26,1.76,1.76,0,0,1,1.54-.48l.32.11.29.14.26.23a1.33,1.33,0,0,1,.21.26,1.59,1.59,0,0,1,.15.29,1.19,1.19,0,0,1,.1.32,1.86,1.86,0,0,1,0,.33,1.65,1.65,0,0,1,0,.32,1.15,1.15,0,0,1-.1.33,1.59,1.59,0,0,1-.15.29,1.68,1.68,0,0,1-1.42.76Z"/><path class="cls-1" d="M33.12,46.35a1.74,1.74,0,0,1-1.42-.75,2.1,2.1,0,0,1-.15-.3,1.31,1.31,0,0,1-.1-.32,1.83,1.83,0,0,1,0-.66,1.19,1.19,0,0,1,.1-.32,1.59,1.59,0,0,1,.15-.29,1.78,1.78,0,0,1,.21-.27l.26-.21a2.1,2.1,0,0,1,.3-.15l.31-.1a1.89,1.89,0,0,1,.67,0l.32.1a2.64,2.64,0,0,1,.29.15l.26.21a1.78,1.78,0,0,1,.21.27,1.64,1.64,0,0,1,.16.29,1.68,1.68,0,0,1,.09.32,1.38,1.38,0,0,1,0,.66,1.92,1.92,0,0,1-.09.32c0,.1-.1.2-.16.3a1.27,1.27,0,0,1-.21.25,2.75,2.75,0,0,1-.26.22,1.59,1.59,0,0,1-.29.15,1.31,1.31,0,0,1-.32.1A1.84,1.84,0,0,1,33.12,46.35Z"/><path class="cls-1" d="M33.11,56.84a1.7,1.7,0,1,1,.33-3.37,1.28,1.28,0,0,1,.32.09,2.69,2.69,0,0,1,.29.16,1.7,1.7,0,0,1,.26,2.62l-.26.21a1.11,1.11,0,0,1-.29.14,1,1,0,0,1-.32.11A1.86,1.86,0,0,1,33.11,56.84Z"/><path class="cls-1" d="M33.1,67.32a1.72,1.72,0,0,1-1.21-.5,2.39,2.39,0,0,1-.21-.26,2.69,2.69,0,0,1-.16-.29,1.78,1.78,0,0,1-.09-.33,1.65,1.65,0,0,1,0-.32,2,2,0,0,1,0-.34,1.81,1.81,0,0,1,.09-.31,2.85,2.85,0,0,1,.16-.3,1.33,1.33,0,0,1,.21-.26,2.75,2.75,0,0,1,.26-.22l.29-.14a2,2,0,0,1,.32-.11,1.78,1.78,0,0,1,1.54.47,1.33,1.33,0,0,1,.21.26,2.85,2.85,0,0,1,.16.3,1.81,1.81,0,0,1,.09.31,1.32,1.32,0,0,1,0,.34,1.12,1.12,0,0,1,0,.32,1.78,1.78,0,0,1-.09.33,2.69,2.69,0,0,1-.16.29,2.39,2.39,0,0,1-.21.26A1.71,1.71,0,0,1,33.1,67.32Z"/><path class="cls-1" d="M33.08,77.8a1.84,1.84,0,0,1-.33,0l-.32-.1a1.64,1.64,0,0,1-.29-.16,2.65,2.65,0,0,1-.26-.21,1.33,1.33,0,0,1-.21-.26l-.16-.29a1.68,1.68,0,0,1-.09-.32,1.24,1.24,0,0,1,0-.33,1.68,1.68,0,0,1,.5-1.2,2.75,2.75,0,0,1,.26-.22,1.59,1.59,0,0,1,.29-.15,1,1,0,0,1,.32-.1,1.89,1.89,0,0,1,.67,0,.94.94,0,0,1,.31.1,1.4,1.4,0,0,1,.3.15,2.75,2.75,0,0,1,.26.22,1.71,1.71,0,0,1,.49,1.2,1.84,1.84,0,0,1,0,.33,1.19,1.19,0,0,1-.1.32,2,2,0,0,1-.15.29,1.83,1.83,0,0,1-.21.26,2.65,2.65,0,0,1-.26.21,1.73,1.73,0,0,1-.3.16l-.31.1A2,2,0,0,1,33.08,77.8Z"/><path class="cls-1" d="M33,88.31a1.7,1.7,0,0,1-.5-3.33l.21-.06a1.7,1.7,0,0,1,1,3.25l-.2.06A1.81,1.81,0,0,1,33,88.31Z"/><path class="cls-1" d="M33,98.87a1.67,1.67,0,0,1-1.36-.68A1.69,1.69,0,0,1,32,95.81l.36-.27a1.7,1.7,0,1,1,2,2.71l-.36.27A1.66,1.66,0,0,1,33,98.87Z"/><path class="cls-1" d="M33,109.45a1.7,1.7,0,0,1-1.3-2.8l.44-.52a1.7,1.7,0,0,1,2.6,2.19l-.44.53A1.7,1.7,0,0,1,33,109.45Z"/><path class="cls-1" d="M33,120a1.7,1.7,0,0,1-1.45-2.58l.46-.77a1.7,1.7,0,0,1,2.91,1.77l-.47.77A1.7,1.7,0,0,1,33,120Z"/><path class="cls-1" d="M33,130.61a1.74,1.74,0,0,1-.66-.14,1.7,1.7,0,0,1-.91-2.22l.43-1A1.7,1.7,0,1,1,35,128.54l-.42,1A1.71,1.71,0,0,1,33,130.61Z"/><path class="cls-1" d="M33,141.2a2,2,0,0,1-.34,0,1.71,1.71,0,0,1-1.33-2l.28-1.33a1.7,1.7,0,0,1,3.33.69l-.28,1.33A1.69,1.69,0,0,1,33,141.2Z"/><path class="cls-1" d="M33.06,151.79h0a1.71,1.71,0,0,1-1.67-1.74l0-1.58a1.7,1.7,0,0,1,1.7-1.66h0a1.7,1.7,0,0,1,1.67,1.73l0,1.58A1.69,1.69,0,0,1,33.06,151.79Z"/><path class="cls-1" d="M33.5,162.33A1.72,1.72,0,0,1,31.84,161l-.41-1.74a1.71,1.71,0,0,1,1.27-2.05,1.69,1.69,0,0,1,2,1.27l.41,1.74a1.68,1.68,0,0,1-1.65,2.09Z"/><path class="cls-1" d="M34.12,172.76a1.69,1.69,0,0,1-1.43-.79l-1-1.6a1.7,1.7,0,0,1,2.87-1.82l1,1.6a1.71,1.71,0,0,1-1.44,2.61Z"/><path class="cls-1" d="M34.79,183a1.73,1.73,0,0,1-.87-.24l-1.65-1A1.7,1.7,0,0,1,34,178.87l1.66,1a1.7,1.7,0,0,1,.6,2.33A1.68,1.68,0,0,1,34.79,183Z"/><path class="cls-1" d="M33,193.28a1.7,1.7,0,0,1-.21-3.39l2-.25a1.7,1.7,0,0,1,.42,3.38l-2,.25Z"/><path class="cls-1" d="M33,204.59a1.7,1.7,0,0,1-1.05-3l2-1.57A1.7,1.7,0,0,1,36,202.65l-2,1.57A1.69,1.69,0,0,1,33,204.59Z"/><path class="cls-1" d="M32.93,215.75a1.67,1.67,0,0,1-.86-.24,1.71,1.71,0,0,1-.61-2.33L33,210.53a1.68,1.68,0,0,1,2.32-.6,1.71,1.71,0,0,1,.61,2.33l-1.57,2.65A1.68,1.68,0,0,1,32.93,215.75Z"/><path class="cls-1" d="M32.94,226.61a1.58,1.58,0,0,1-.52-.09,1.69,1.69,0,0,1-1.1-2.14l1.06-3.25a1.7,1.7,0,1,1,3.23,1l-1,3.26A1.7,1.7,0,0,1,32.94,226.61Z"/><path class="cls-1" d="M43.05,25.38a1.24,1.24,0,0,1-.33,0,1.68,1.68,0,0,1-.32-.09c-.1-.06-.2-.1-.29-.16a1.33,1.33,0,0,1-.26-.21,1.71,1.71,0,0,1-.5-1.2,1.87,1.87,0,0,1,0-.34,1.6,1.6,0,0,1,.1-.31,1.43,1.43,0,0,1,.16-.3,1.71,1.71,0,0,1,.21-.26,1.76,1.76,0,0,1,2.4,0,2.75,2.75,0,0,1,.22.26,1.4,1.4,0,0,1,.15.3,1.6,1.6,0,0,1,.1.31,1.87,1.87,0,0,1,0,.34,1.71,1.71,0,0,1-.5,1.2,1.27,1.27,0,0,1-.25.21l-.3.16a1.68,1.68,0,0,1-.32.09A1.24,1.24,0,0,1,43.05,25.38Z"/><path class="cls-1" d="M43.05,35.86a1.72,1.72,0,0,1-1.21-.5,2.65,2.65,0,0,1-.21-.26,1.59,1.59,0,0,1-.15-.29,1.15,1.15,0,0,1-.1-.33,1.66,1.66,0,0,1,0-.32,1.84,1.84,0,0,1,0-.33,1.19,1.19,0,0,1,.1-.32,1.59,1.59,0,0,1,.15-.29,1.83,1.83,0,0,1,.21-.26l.26-.23a2.75,2.75,0,0,1,.3-.14l.31-.11a1.75,1.75,0,0,1,1.54.48,1.33,1.33,0,0,1,.21.26,1.64,1.64,0,0,1,.16.29,3,3,0,0,1,.1.32,1.84,1.84,0,0,1,0,.33A1.68,1.68,0,0,1,44,35.57a1.64,1.64,0,0,1-.29.16l-.32.1A1.84,1.84,0,0,1,43.05,35.86Z"/><path class="cls-1" d="M43,46.35a1.68,1.68,0,0,1-1.2-.5,1.7,1.7,0,0,1-.5-1.2,1.84,1.84,0,0,1,0-.33,1.7,1.7,0,0,1,.1-.32,1.18,1.18,0,0,1,.16-.29,1.78,1.78,0,0,1,.21-.27,3,3,0,0,1,.26-.21,2.64,2.64,0,0,1,.29-.15,1.7,1.7,0,0,1,.32-.1,1.83,1.83,0,0,1,.66,0,1.7,1.7,0,0,1,.32.1,2.64,2.64,0,0,1,.29.15,2,2,0,0,1,.26.21,2.88,2.88,0,0,1,.22.27,1.59,1.59,0,0,1,.15.29,1.7,1.7,0,0,1,.1.32,1.84,1.84,0,0,1,0,.33,1.68,1.68,0,0,1-.5,1.2,1.43,1.43,0,0,1-.26.22,1.59,1.59,0,0,1-.29.15,1.7,1.7,0,0,1-.32.1A1.84,1.84,0,0,1,43,46.35Z"/><path class="cls-1" d="M43,56.83a1.71,1.71,0,0,1-1.7-1.7,1.7,1.7,0,0,1,.5-1.2,1.76,1.76,0,0,1,2.4,0,1.7,1.7,0,0,1,.5,1.2,1.71,1.71,0,0,1-1.7,1.7Z"/><path class="cls-1" d="M43,67.32a1.72,1.72,0,0,1-1.2-.5l-.22-.26a1.4,1.4,0,0,1-.15-.3,1.57,1.57,0,0,1-.13-.65,1.84,1.84,0,0,1,0-.33,2,2,0,0,1,.1-.32,1.59,1.59,0,0,1,.15-.29,1.88,1.88,0,0,1,.22-.26,1.75,1.75,0,0,1,1.53-.47l.32.1.29.15a1.88,1.88,0,0,1,.26.22,1.33,1.33,0,0,1,.21.26,1.64,1.64,0,0,1,.16.29c0,.11.07.21.1.32a1.84,1.84,0,0,1,0,.33,1.69,1.69,0,0,1,0,.33,3,3,0,0,1-.1.32,1.43,1.43,0,0,1-.16.3,2.39,2.39,0,0,1-.21.26A1.74,1.74,0,0,1,43,67.32Z"/><path class="cls-1" d="M43.07,77.81h-.23l-.2,0a1.7,1.7,0,1,1,.45-3.37l.2,0a1.7,1.7,0,0,1-.22,3.39Z"/><path class="cls-1" d="M42.71,88.3a1.7,1.7,0,0,1-.24-3.38l.44-.07a1.7,1.7,0,1,1,.48,3.37l-.44.06A1,1,0,0,1,42.71,88.3Z"/><path class="cls-1" d="M42.72,98.87A1.7,1.7,0,0,1,42,95.64l.61-.29a1.7,1.7,0,1,1,1.48,3.06l-.61.29A1.63,1.63,0,0,1,42.72,98.87Z"/><path class="cls-1" d="M42.71,109.47a1.67,1.67,0,0,1-1.28-.58,1.7,1.7,0,0,1,.16-2.4l.68-.59a1.7,1.7,0,1,1,2.24,2.56l-.68.59A1.72,1.72,0,0,1,42.71,109.47Z"/><path class="cls-1" d="M42.73,120.06a1.71,1.71,0,0,1-1.35-2.74l.67-.87a1.7,1.7,0,0,1,2.7,2.07l-.67.87A1.69,1.69,0,0,1,42.73,120.06Z"/><path class="cls-1" d="M42.76,130.65a1.65,1.65,0,0,1-.77-.19,1.71,1.71,0,0,1-.74-2.29l.58-1.14a1.7,1.7,0,1,1,3,1.55l-.58,1.14A1.7,1.7,0,0,1,42.76,130.65Z"/><path class="cls-1" d="M42.82,141.24a1.67,1.67,0,0,1-1.64-2.14l.39-1.45a1.7,1.7,0,0,1,3.29.88L44.47,140A1.72,1.72,0,0,1,42.82,141.24Z"/><path class="cls-1" d="M42.89,151.83h-.1a1.7,1.7,0,0,1-1.6-1.8l.1-1.72a1.7,1.7,0,0,1,3.4.2l-.1,1.72A1.71,1.71,0,0,1,42.89,151.83Z"/><path class="cls-1" d="M43.37,162.39A1.7,1.7,0,0,1,41.7,161l-.38-1.91a1.7,1.7,0,1,1,3.34-.66l.38,1.91a1.71,1.71,0,0,1-1.34,2Z"/><path class="cls-1" d="M44,172.83a1.69,1.69,0,0,1-1.49-.87l-1-1.81a1.7,1.7,0,0,1,3-1.66l1,1.81a1.7,1.7,0,0,1-.65,2.32A1.79,1.79,0,0,1,44,172.83Z"/><path class="cls-1" d="M44.77,183.1a1.67,1.67,0,0,1-1-.32l-1.72-1.23a1.7,1.7,0,0,1,2-2.77L45.76,180a1.7,1.7,0,0,1-1,3.08Z"/><path class="cls-1" d="M45,193.12h0l-2.23,0a1.7,1.7,0,0,1,0-3.4h0l2.22,0a1.7,1.7,0,0,1,0,3.4Z"/><path class="cls-1" d="M42.63,204.45a1.7,1.7,0,0,1-1.46-.82,1.72,1.72,0,0,1,.58-2.34L44,199.93a1.7,1.7,0,0,1,1.76,2.92l-2.26,1.36A1.77,1.77,0,0,1,42.63,204.45Z"/><path class="cls-1" d="M42.56,215.68a1.75,1.75,0,0,1-1-.33,1.71,1.71,0,0,1-.35-2.38l1.9-2.56a1.7,1.7,0,0,1,2.73,2L43.92,215A1.7,1.7,0,0,1,42.56,215.68Z"/><path class="cls-1" d="M42.56,226.61a1.79,1.79,0,0,1-.67-.14,1.71,1.71,0,0,1-.89-2.24L42.41,221a1.7,1.7,0,1,1,3.12,1.34l-1.41,3.28A1.7,1.7,0,0,1,42.56,226.61Z"/><path class="cls-1" d="M53,25.38a1.69,1.69,0,0,1-1.7-1.7,1.87,1.87,0,0,1,0-.34,1.12,1.12,0,0,1,.1-.31,1.4,1.4,0,0,1,.15-.3,1.71,1.71,0,0,1,.21-.26,2.65,2.65,0,0,1,.26-.21,1.14,1.14,0,0,1,.29-.15,1.31,1.31,0,0,1,.32-.1,1.74,1.74,0,0,1,1.54.46,1.71,1.71,0,0,1,.21.26,2.11,2.11,0,0,1,.16.3,1.58,1.58,0,0,1,.09.31,1.27,1.27,0,0,1,0,.34,1.71,1.71,0,0,1-.5,1.2A1.76,1.76,0,0,1,53,25.38Z"/><path class="cls-1" d="M53,35.86a1.68,1.68,0,0,1-1.2-.5,2.62,2.62,0,0,1-.22-.25,2.1,2.1,0,0,1-.15-.3,1.66,1.66,0,0,1-.13-.65,1.84,1.84,0,0,1,0-.33,1.7,1.7,0,0,1,.1-.32,1.59,1.59,0,0,1,.15-.29,1.88,1.88,0,0,1,.22-.26,1.27,1.27,0,0,1,.25-.21,2.19,2.19,0,0,1,.3-.16l.32-.11a1.73,1.73,0,0,1,1.53.48,1.33,1.33,0,0,1,.21.26,1.64,1.64,0,0,1,.16.29,1.7,1.7,0,0,1,.1.32,1.84,1.84,0,0,1,0,.33,1.66,1.66,0,0,1-.13.65,1.46,1.46,0,0,1-.16.3,1.64,1.64,0,0,1-.21.25,1.38,1.38,0,0,1-.26.22,1.59,1.59,0,0,1-.29.15,1.19,1.19,0,0,1-.32.1A1.84,1.84,0,0,1,53,35.86Z"/><path class="cls-1" d="M52.94,46.36a1.71,1.71,0,0,1-1.7-1.7,1.76,1.76,0,0,1,.5-1.22,1.71,1.71,0,0,1,2.91,1.22,1.76,1.76,0,0,1-.5,1.2A1.72,1.72,0,0,1,52.94,46.36Z"/><path class="cls-1" d="M52.93,56.86a1.72,1.72,0,0,1-1.34-2.78A1.67,1.67,0,0,1,54,53.8l0,0a1.7,1.7,0,0,1-1.06,3Z"/><path class="cls-1" d="M53,67.43a1.7,1.7,0,0,1-.91-.26L51.84,67a1.7,1.7,0,1,1,1.81-2.88l.27.17a1.7,1.7,0,0,1-.9,3.14Z"/><path class="cls-1" d="M53.11,78a1.8,1.8,0,0,1-.68-.14l-.54-.24a1.7,1.7,0,1,1,1.37-3.11l.53.23A1.7,1.7,0,0,1,53.11,78Z"/><path class="cls-1" d="M53.2,88.37a1.23,1.23,0,0,1-.27,0l-.8-.12a1.7,1.7,0,1,1,.53-3.36l.8.12a1.7,1.7,0,0,1-.26,3.38Z"/><path class="cls-1" d="M52.37,98.85a1.7,1.7,0,0,1-.29-3.38l1-.17a1.71,1.71,0,0,1,2,1.39,1.7,1.7,0,0,1-1.39,2l-1,.17A1.43,1.43,0,0,1,52.37,98.85Z"/><path class="cls-1" d="M52.35,109.48a1.69,1.69,0,0,1-1.5-.91,1.7,1.7,0,0,1,.71-2.3l1-.55a1.7,1.7,0,1,1,1.59,3l-1.05.56A1.76,1.76,0,0,1,52.35,109.48Z"/><path class="cls-1" d="M52.4,120.11a1.68,1.68,0,0,1-1.24-.54,1.7,1.7,0,0,1,.07-2.4l1-.93a1.7,1.7,0,0,1,2.33,2.48l-1,.93A1.72,1.72,0,0,1,52.4,120.11Z"/><path class="cls-1" d="M52.47,130.73A1.71,1.71,0,0,1,51,128.1l.84-1.28a1.7,1.7,0,0,1,2.85,1.85L53.89,130A1.69,1.69,0,0,1,52.47,130.73Z"/><path class="cls-1" d="M52.57,141.35a1.58,1.58,0,0,1-.56-.1,1.7,1.7,0,0,1-1-2.17l.58-1.64a1.7,1.7,0,1,1,3.21,1.13l-.58,1.64A1.72,1.72,0,0,1,52.57,141.35Z"/><path class="cls-1" d="M52.69,152h-.21A1.71,1.71,0,0,1,51,150l.24-1.95a1.7,1.7,0,0,1,3.38.42l-.24,2A1.7,1.7,0,0,1,52.69,152Z"/><path class="cls-1" d="M53.21,162.53a1.69,1.69,0,0,1-1.68-1.48l-.29-2.19a1.7,1.7,0,0,1,3.38-.44l.28,2.19a1.7,1.7,0,0,1-1.47,1.91Z"/><path class="cls-1" d="M53.94,173a1.72,1.72,0,0,1-1.56-1l-1-2.19a1.7,1.7,0,1,1,3.11-1.39l1,2.19a1.7,1.7,0,0,1-.86,2.25A1.68,1.68,0,0,1,53.94,173Z"/><path class="cls-1" d="M54.76,183.31a1.72,1.72,0,0,1-1.18-.46l-1.78-1.7a1.7,1.7,0,0,1,2.34-2.47l1.79,1.7a1.69,1.69,0,0,1,.06,2.4A1.65,1.65,0,0,1,54.76,183.31Z"/><path class="cls-1" d="M55,193.36a1.34,1.34,0,0,1-.35,0l-2.45-.51a1.7,1.7,0,0,1,.7-3.33l2.45.51a1.7,1.7,0,0,1-.35,3.37Z"/><path class="cls-1" d="M52.25,204.22a1.7,1.7,0,0,1-.56-3.31l2.65-.92a1.7,1.7,0,0,1,1.12,3.22l-2.66.92A1.76,1.76,0,0,1,52.25,204.22Z"/><path class="cls-1" d="M52.09,215.55a1.73,1.73,0,0,1-1.24-.53,1.71,1.71,0,0,1,.08-2.41l2.43-2.28a1.7,1.7,0,0,1,2.33,2.48l-2.43,2.28A1.7,1.7,0,0,1,52.09,215.55Z"/><path class="cls-1" d="M52.08,226.61a1.64,1.64,0,0,1-.89-.26,1.69,1.69,0,0,1-.55-2.34l2-3.18a1.7,1.7,0,0,1,2.89,1.79l-2,3.18A1.7,1.7,0,0,1,52.08,226.61Z"/><path class="cls-1" d="M62.91,25.4a1.66,1.66,0,0,1-1.25-.55,1.71,1.71,0,0,1,.09-2.41,1.68,1.68,0,0,1,2.39.09l0,0a1.7,1.7,0,0,1-1.25,2.85Z"/><path class="cls-1" d="M62.93,35.93a1.7,1.7,0,0,1-1.24-.53,1.73,1.73,0,0,1,0-2.44,1.67,1.67,0,0,1,2.37,0l.06.06a1.7,1.7,0,0,1-.07,2.41A1.68,1.68,0,0,1,62.93,35.93Z"/><path class="cls-1" d="M63,46.51A1.73,1.73,0,0,1,61.71,46l-.17-.2a1.69,1.69,0,0,1,.06-2.4,1.71,1.71,0,0,1,2.41.07l.18.19A1.7,1.7,0,0,1,63,46.51Z"/><path class="cls-1" d="M63,57.12a1.69,1.69,0,0,1-1.23-.53l-.36-.38a1.7,1.7,0,1,1,2.46-2.34l.36.38a1.69,1.69,0,0,1-.06,2.4A1.66,1.66,0,0,1,63,57.12Z"/><path class="cls-1" d="M63.07,67.74a1.68,1.68,0,0,1-1.2-.49l-.58-.58a1.7,1.7,0,0,1,2.39-2.41l.58.57a1.7,1.7,0,0,1-1.19,2.91Z"/><path class="cls-1" d="M63.15,78.31a1.71,1.71,0,0,1-1.08-.39l-.84-.69a1.7,1.7,0,1,1,2.15-2.63l.85.7a1.7,1.7,0,0,1-1.08,3Z"/><path class="cls-1" d="M63.25,88.73a1.68,1.68,0,0,1-.75-.17L61.33,88a1.7,1.7,0,1,1,1.5-3l1.17.58a1.7,1.7,0,0,1-.75,3.22Z"/><path class="cls-1" d="M63.42,99a1.23,1.23,0,0,1-.27,0l-1.42-.23a1.69,1.69,0,0,1-1.41-1.94,1.71,1.71,0,0,1,2-1.42l1.42.23A1.7,1.7,0,0,1,63.42,99Z"/><path class="cls-1" d="M62,109.49a1.7,1.7,0,0,1-.35-3.37l1.51-.31a1.7,1.7,0,1,1,.7,3.33l-1.51.31A1.39,1.39,0,0,1,62,109.49Z"/><path class="cls-1" d="M62,120.18a1.7,1.7,0,0,1-.86-3.16l1.42-.84a1.7,1.7,0,0,1,1.73,2.93l-1.42.84A1.69,1.69,0,0,1,62,120.18Z"/><path class="cls-1" d="M62.11,130.87a1.74,1.74,0,0,1-1.14-.44,1.7,1.7,0,0,1-.12-2.4l1.21-1.34A1.7,1.7,0,1,1,64.58,129l-1.2,1.34A1.72,1.72,0,0,1,62.11,130.87Z"/><path class="cls-1" d="M62.27,141.55a1.75,1.75,0,0,1-.73-.16,1.7,1.7,0,0,1-.8-2.27l.87-1.83a1.7,1.7,0,1,1,3.07,1.46l-.87,1.83A1.7,1.7,0,0,1,62.27,141.55Z"/><path class="cls-1" d="M62.45,152.2a2.07,2.07,0,0,1-.35,0,1.7,1.7,0,0,1-1.32-2l.46-2.24a1.7,1.7,0,1,1,3.33.69l-.46,2.24A1.69,1.69,0,0,1,62.45,152.2Z"/><path class="cls-1" d="M63,162.82a1.7,1.7,0,0,1-1.69-1.63l-.11-2.56a1.7,1.7,0,1,1,3.39-.15l.12,2.57a1.7,1.7,0,0,1-1.63,1.77Z"/><path class="cls-1" d="M63.8,173.36a1.69,1.69,0,0,1-1.61-1.17l-.88-2.67a1.7,1.7,0,1,1,3.23-1.06l.88,2.67a1.71,1.71,0,0,1-1.09,2.15A1.59,1.59,0,0,1,63.8,173.36Z"/><path class="cls-1" d="M64.71,183.72a1.68,1.68,0,0,1-1.35-.66l-1.79-2.31a1.7,1.7,0,0,1,2.7-2.08L66.05,181a1.69,1.69,0,0,1-1.34,2.74Z"/><path class="cls-1" d="M65,193.81a1.63,1.63,0,0,1-.71-.16l-2.65-1.23a1.7,1.7,0,0,1,1.44-3.08l2.64,1.23a1.7,1.7,0,0,1-.72,3.24Z"/><path class="cls-1" d="M61.85,204a1.7,1.7,0,0,1-.12-3.4l3.07-.21a1.7,1.7,0,0,1,.24,3.39L62,204Z"/><path class="cls-1" d="M61.59,215.42a1.7,1.7,0,0,1-.84-3.18l3-1.73a1.7,1.7,0,0,1,1.69,3l-3,1.72A1.75,1.75,0,0,1,61.59,215.42Z"/><path class="cls-1" d="M61.54,226.61a1.7,1.7,0,0,1-1.24-2.86L63,220.9a1.7,1.7,0,0,1,2.49,2.32l-2.65,2.85A1.71,1.71,0,0,1,61.54,226.61Z"/><path class="cls-1" d="M73,25.63a1.7,1.7,0,0,1-1.37-.69l-.3-.41a1.7,1.7,0,0,1,2.74-2l.3.4A1.71,1.71,0,0,1,74,25.29,1.66,1.66,0,0,1,73,25.63Z"/><path class="cls-1" d="M73,36.18a1.7,1.7,0,0,1-1.38-.71L71.27,35A1.7,1.7,0,0,1,74,33l.33.46A1.71,1.71,0,0,1,73,36.18Z"/><path class="cls-1" d="M73,46.8a1.71,1.71,0,0,1-1.4-.73l-.44-.64A1.7,1.7,0,0,1,74,43.5l.43.63A1.7,1.7,0,0,1,73,46.8Z"/><path class="cls-1" d="M73,57.47a1.7,1.7,0,0,1-1.4-.74L71,55.86a1.7,1.7,0,1,1,2.81-1.92l.59.87A1.71,1.71,0,0,1,73,57.47Z"/><path class="cls-1" d="M73.07,68.15a1.68,1.68,0,0,1-1.39-.73l-.8-1.13a1.7,1.7,0,0,1,2.78-2l.8,1.14a1.7,1.7,0,0,1-.41,2.37A1.77,1.77,0,0,1,73.07,68.15Z"/><path class="cls-1" d="M73.15,78.76a1.71,1.71,0,0,1-1.32-.62l-1.07-1.29a1.7,1.7,0,0,1,2.63-2.17L74.46,76a1.7,1.7,0,0,1-1.31,2.78Z"/><path class="cls-1" d="M73.24,89.23a1.65,1.65,0,0,1-1.1-.41l-1.42-1.21A1.7,1.7,0,1,1,72.92,85l1.42,1.21a1.7,1.7,0,0,1-1.1,3Z"/><path class="cls-1" d="M73.44,99.5a1.71,1.71,0,0,1-.72-.16L71,98.53a1.7,1.7,0,0,1,1.42-3.09l1.77.81a1.7,1.7,0,0,1-.71,3.25Z"/><path class="cls-1" d="M73.52,109.6h-.13l-1.94-.14a1.7,1.7,0,1,1,.26-3.39l1.93.14a1.7,1.7,0,0,1-.12,3.4Z"/><path class="cls-1" d="M71.61,120.25a1.7,1.7,0,0,1-.51-3.32l1.88-.6a1.7,1.7,0,0,1,1,3.24l-1.88.6A1.88,1.88,0,0,1,71.61,120.25Z"/><path class="cls-1" d="M71.73,131a1.7,1.7,0,0,1-1-3l1.64-1.3a1.7,1.7,0,1,1,2.11,2.66l-1.64,1.31A1.74,1.74,0,0,1,71.73,131Z"/><path class="cls-1" d="M71.93,141.8a1.69,1.69,0,0,1-1.44-2.6l1.24-2A1.7,1.7,0,1,1,74.61,139l-1.24,2A1.7,1.7,0,0,1,71.93,141.8Z"/><path class="cls-1" d="M72.16,152.52a1.8,1.8,0,0,1-.5-.08,1.7,1.7,0,0,1-1.12-2.13l.78-2.5a1.7,1.7,0,1,1,3.24,1l-.77,2.51A1.71,1.71,0,0,1,72.16,152.52Z"/><path class="cls-1" d="M72.78,163.21h-.09a1.7,1.7,0,0,1-1.61-1.78l.14-3a1.7,1.7,0,1,1,3.4.17l-.15,3A1.69,1.69,0,0,1,72.78,163.21Z"/><path class="cls-1" d="M73.62,173.83A1.7,1.7,0,0,1,72,172.47l-.68-3.23a1.7,1.7,0,0,1,3.33-.7l.68,3.24a1.7,1.7,0,0,1-1.32,2A2,2,0,0,1,73.62,173.83Z"/><path class="cls-1" d="M74.61,184.27a1.71,1.71,0,0,1-1.48-.87l-1.7-3a1.7,1.7,0,1,1,3-1.66l1.7,3a1.7,1.7,0,0,1-.66,2.31A1.64,1.64,0,0,1,74.61,184.27Z"/><path class="cls-1" d="M74.89,194.43a1.67,1.67,0,0,1-1-.35L71.11,192a1.7,1.7,0,1,1,2.07-2.7l2.74,2.09a1.7,1.7,0,0,1-1,3.05Z"/><path class="cls-1" d="M74.89,204.4l-.33,0-3.37-.66a1.7,1.7,0,0,1,.65-3.34l3.38.66a1.7,1.7,0,0,1-.33,3.37Z"/><path class="cls-1" d="M71.14,215.27a1.7,1.7,0,0,1-.45-3.34l3.54-1a1.7,1.7,0,1,1,.89,3.28l-3.54,1A1.72,1.72,0,0,1,71.14,215.27Z"/><path class="cls-1" d="M71,226.61a1.7,1.7,0,0,1-1-3.1l3.28-2.28A1.7,1.7,0,1,1,75.28,224L72,226.3A1.65,1.65,0,0,1,71,226.61Z"/><path class="cls-1" d="M83,26.22a1.68,1.68,0,0,1-1.43-.78L81,24.59a1.7,1.7,0,0,1,2.87-1.83l.54.85A1.69,1.69,0,0,1,83,26.22Z"/><path class="cls-1" d="M83,36.79A1.72,1.72,0,0,1,81.55,36L81,35.06a1.7,1.7,0,1,1,2.88-1.8l.58.92a1.71,1.71,0,0,1-.54,2.35A1.74,1.74,0,0,1,83,36.79Z"/><path class="cls-1" d="M83,47.42a1.7,1.7,0,0,1-1.48-.85l-.64-1.11a1.7,1.7,0,1,1,2.94-1.71l.65,1.12a1.7,1.7,0,0,1-.62,2.32A1.65,1.65,0,0,1,83,47.42Z"/><path class="cls-1" d="M83,58.12a1.73,1.73,0,0,1-1.49-.87l-.78-1.4a1.7,1.7,0,0,1,3-1.66l.78,1.39a1.7,1.7,0,0,1-.65,2.32A1.66,1.66,0,0,1,83,58.12Z"/><path class="cls-1" d="M83,68.82A1.69,1.69,0,0,1,81.54,68l-1-1.7a1.7,1.7,0,0,1,3-1.66l1,1.7a1.7,1.7,0,0,1-.65,2.32A1.76,1.76,0,0,1,83,68.82Z"/><path class="cls-1" d="M83.08,79.47a1.7,1.7,0,0,1-1.44-.79l-1.21-1.91A1.7,1.7,0,0,1,83.31,75l1.21,1.91A1.71,1.71,0,0,1,84,79.21,1.68,1.68,0,0,1,83.08,79.47Z"/><path class="cls-1" d="M83.19,90a1.67,1.67,0,0,1-1.28-.58l-1.62-1.85a1.7,1.7,0,0,1,2.57-2.24l1.61,1.86a1.68,1.68,0,0,1-.16,2.39A1.65,1.65,0,0,1,83.19,90Z"/><path class="cls-1" d="M83.41,100.22a1.71,1.71,0,0,1-1-.32l-2-1.43a1.7,1.7,0,0,1,2-2.78l2,1.43a1.71,1.71,0,0,1-1,3.1Z"/><path class="cls-1" d="M83.53,110.25a1.84,1.84,0,0,1-.47-.06l-2.31-.67a1.7,1.7,0,0,1,.94-3.27l2.31.67a1.7,1.7,0,0,1-.47,3.33Z"/><path class="cls-1" d="M81.21,120.44a1.7,1.7,0,0,1-.17-3.39l2.32-.24a1.68,1.68,0,0,1,1.87,1.51,1.7,1.7,0,0,1-1.51,1.87l-2.33.24Z"/><path class="cls-1" d="M81.34,131.31a1.7,1.7,0,0,1-.82-3.19l2.1-1.16a1.7,1.7,0,1,1,1.64,3l-2.1,1.16A1.72,1.72,0,0,1,81.34,131.31Z"/><path class="cls-1" d="M81.55,142.17a1.7,1.7,0,0,1-1.31-2.78L82,137.31a1.7,1.7,0,0,1,2.62,2.17l-1.71,2.08A1.71,1.71,0,0,1,81.55,142.17Z"/><path class="cls-1" d="M81.83,153a1.8,1.8,0,0,1-.68-.14,1.7,1.7,0,0,1-.88-2.24l1.2-2.78a1.7,1.7,0,0,1,3.12,1.36l-1.2,2.78A1.71,1.71,0,0,1,81.83,153Z"/><path class="cls-1" d="M82.49,163.72l-.26,0a1.69,1.69,0,0,1-1.42-1.94l.52-3.42a1.7,1.7,0,0,1,3.36.51l-.52,3.43A1.7,1.7,0,0,1,82.49,163.72Z"/><path class="cls-1" d="M83.41,174.4a1.71,1.71,0,0,1-1.69-1.53L81.33,169a1.7,1.7,0,0,1,3.39-.34l.38,3.85a1.7,1.7,0,0,1-1.52,1.86Z"/><path class="cls-1" d="M84.5,184.9a1.68,1.68,0,0,1-1.58-1.07L81.39,180a1.7,1.7,0,0,1,3.16-1.26l1.53,3.82a1.7,1.7,0,0,1-1,2.21A1.57,1.57,0,0,1,84.5,184.9Z"/><path class="cls-1" d="M84.79,195.11a1.7,1.7,0,0,1-1.26-.55l-2.76-3a1.7,1.7,0,1,1,2.5-2.3l2.77,3a1.7,1.7,0,0,1-1.25,2.85Z"/><path class="cls-1" d="M84.84,205.1a1.67,1.67,0,0,1-.69-.14l-3.6-1.61a1.7,1.7,0,1,1,1.39-3.11l3.6,1.61a1.7,1.7,0,0,1-.7,3.25Z"/><path class="cls-1" d="M80.76,215.08a1.7,1.7,0,0,1,0-3.4l4-.1a1.7,1.7,0,1,1,.08,3.4l-3.94.1Z"/><path class="cls-1" d="M80.6,226.54a1.7,1.7,0,0,1-.66-3.27l3.81-1.61a1.7,1.7,0,1,1,1.33,3.13l-3.81,1.61A1.79,1.79,0,0,1,80.6,226.54Z"/><path class="cls-1" d="M93,26.6a1.71,1.71,0,0,1-1.46-.83l-.73-1.23a1.7,1.7,0,0,1,2.92-1.74L94.5,24A1.7,1.7,0,0,1,93,26.6Z"/><path class="cls-1" d="M93,37.18a1.69,1.69,0,0,1-1.46-.84l-.76-1.28a1.7,1.7,0,1,1,2.92-1.74l.76,1.29A1.7,1.7,0,0,1,93,37.18Z"/><path class="cls-1" d="M93,47.85A1.69,1.69,0,0,1,91.53,47l-.83-1.5a1.71,1.71,0,0,1,3-1.64l.82,1.51a1.71,1.71,0,0,1-.67,2.31A1.72,1.72,0,0,1,93,47.85Z"/><path class="cls-1" d="M93,58.58a1.7,1.7,0,0,1-1.51-.93l-.94-1.82a1.7,1.7,0,1,1,3-1.55l.94,1.82a1.71,1.71,0,0,1-.74,2.29A1.69,1.69,0,0,1,93,58.58Z"/><path class="cls-1" d="M93,69.32a1.7,1.7,0,0,1-1.52-.93l-1.09-2.16a1.7,1.7,0,0,1,3-1.53l1.09,2.16a1.7,1.7,0,0,1-.75,2.28A1.77,1.77,0,0,1,93,69.32Z"/><path class="cls-1" d="M93,80a1.7,1.7,0,0,1-1.48-.86l-1.34-2.39a1.7,1.7,0,0,1,3-1.67l1.34,2.38A1.7,1.7,0,0,1,93,80Z"/><path class="cls-1" d="M93.15,90.51a1.7,1.7,0,0,1-1.35-.67L90,87.5a1.7,1.7,0,0,1,2.71-2.06l1.78,2.34a1.7,1.7,0,0,1-1.35,2.73Z"/><path class="cls-1" d="M93.37,100.78a1.65,1.65,0,0,1-1.1-.41L90,98.46a1.7,1.7,0,1,1,2.2-2.59l2.25,1.91a1.7,1.7,0,0,1-1.1,3Z"/><path class="cls-1" d="M93.51,110.82a1.79,1.79,0,0,1-.67-.14l-2.59-1.11a1.7,1.7,0,0,1,1.33-3.13l2.6,1.11a1.7,1.7,0,0,1-.67,3.27Z"/><path class="cls-1" d="M93.55,120.73h-.07l-2.68-.11a1.7,1.7,0,0,1-1.63-1.77,1.74,1.74,0,0,1,1.77-1.63l2.68.11a1.7,1.7,0,0,1-.07,3.4Z"/><path class="cls-1" d="M91,131.55a1.7,1.7,0,0,1-.59-3.3l2.55-.93a1.7,1.7,0,0,1,1.17,3.19l-2.55.93A1.7,1.7,0,0,1,91,131.55Z"/><path class="cls-1" d="M91.15,142.5A1.7,1.7,0,0,1,90,139.55l2.19-2A1.7,1.7,0,1,1,94.5,140l-2.2,2A1.69,1.69,0,0,1,91.15,142.5Z"/><path class="cls-1" d="M91.44,153.38a1.71,1.71,0,0,1-.84-.23,1.69,1.69,0,0,1-.63-2.32l1.7-2.94a1.7,1.7,0,1,1,2.94,1.7l-1.69,2.94A1.72,1.72,0,0,1,91.44,153.38Z"/><path class="cls-1" d="M92.13,164.24a1.65,1.65,0,0,1-.43-.06,1.68,1.68,0,0,1-1.21-2.07l1-3.79a1.7,1.7,0,1,1,3.29.85l-1,3.79A1.71,1.71,0,0,1,92.13,164.24Z"/><path class="cls-1" d="M93.11,175h0a1.71,1.71,0,0,1-1.7-1.71l0-4.42a1.71,1.71,0,0,1,1.7-1.69h0a1.7,1.7,0,0,1,1.69,1.71l0,4.42A1.71,1.71,0,0,1,93.11,175Z"/><path class="cls-1" d="M94.28,185.61a1.7,1.7,0,0,1-1.64-1.26l-1.23-4.58a1.7,1.7,0,1,1,3.28-.89l1.23,4.58a1.7,1.7,0,0,1-1.2,2.09A1.67,1.67,0,0,1,94.28,185.61Z"/><path class="cls-1" d="M94.58,195.88a1.7,1.7,0,0,1-1.41-.74l-2.66-3.9a1.7,1.7,0,0,1,2.81-1.91l2.66,3.9a1.69,1.69,0,0,1-.45,2.36A1.66,1.66,0,0,1,94.58,195.88Z"/><path class="cls-1" d="M94.67,205.9a1.63,1.63,0,0,1-1-.3L90,203.08a1.7,1.7,0,1,1,1.92-2.8l3.68,2.52a1.7,1.7,0,0,1-1,3.1Z"/><path class="cls-1" d="M94.62,215.76a1.36,1.36,0,0,1-.29,0L90.11,215a1.7,1.7,0,0,1,.57-3.36l4.22.73a1.7,1.7,0,0,1-.28,3.38Z"/><path class="cls-1" d="M90.17,226.61a1.7,1.7,0,0,1-.37-3.36L94,222.3a1.7,1.7,0,1,1,.74,3.32l-4.2.95A2.45,2.45,0,0,1,90.17,226.61Z"/><path class="cls-1" d="M103.05,26.84a1.7,1.7,0,0,1-1.4-.74l-1-1.42a1.7,1.7,0,1,1,2.8-1.92l1,1.42a1.7,1.7,0,0,1-1.4,2.66Z"/><path class="cls-1" d="M103.05,37.44a1.7,1.7,0,0,1-1.42-.75l-1-1.5a1.7,1.7,0,0,1,2.83-1.89l1,1.5a1.7,1.7,0,0,1-1.42,2.64Z"/><path class="cls-1" d="M103,48.15a1.72,1.72,0,0,1-1.46-.82l-1-1.74a1.7,1.7,0,1,1,2.91-1.76l1,1.74a1.71,1.71,0,0,1-.57,2.34A1.74,1.74,0,0,1,103,48.15Z"/><path class="cls-1" d="M103,58.92a1.69,1.69,0,0,1-1.48-.87L100.34,56a1.7,1.7,0,0,1,3-1.66l1.16,2.09a1.69,1.69,0,0,1-.65,2.31A1.66,1.66,0,0,1,103,58.92Z"/><path class="cls-1" d="M103,69.7a1.72,1.72,0,0,1-1.5-.9l-1.31-2.45a1.7,1.7,0,0,1,3-1.61l1.31,2.46a1.7,1.7,0,0,1-.7,2.3A1.64,1.64,0,0,1,103,69.7Z"/><path class="cls-1" d="M103,80.42a1.7,1.7,0,0,1-1.47-.85L100,76.86a1.7,1.7,0,0,1,2.94-1.7l1.57,2.7a1.71,1.71,0,0,1-.62,2.33A1.75,1.75,0,0,1,103,80.42Z"/><path class="cls-1" d="M103.1,90.93a1.69,1.69,0,0,1-1.35-.67l-2-2.65a1.7,1.7,0,0,1,2.71-2.06l2,2.65a1.69,1.69,0,0,1-.32,2.38A1.65,1.65,0,0,1,103.1,90.93Z"/><path class="cls-1" d="M103.3,101.21a1.7,1.7,0,0,1-1.12-.42l-2.51-2.21A1.7,1.7,0,1,1,101.91,96l2.51,2.2a1.7,1.7,0,0,1-1.12,3Z"/><path class="cls-1" d="M103.45,111.24a1.72,1.72,0,0,1-.73-.16l-2.89-1.37a1.7,1.7,0,0,1,1.46-3.07l2.89,1.37a1.7,1.7,0,0,1-.73,3.23Z"/><path class="cls-1" d="M103.52,121.17h-.2l-3-.37a1.7,1.7,0,1,1,.4-3.37l3,.36a1.7,1.7,0,0,1-.2,3.39Z"/><path class="cls-1" d="M100.54,131.78a1.7,1.7,0,0,1-.41-3.35l3-.74a1.7,1.7,0,1,1,.82,3.3l-3,.74A2,2,0,0,1,100.54,131.78Z"/><path class="cls-1" d="M100.72,142.78a1.69,1.69,0,0,1-1.38-.7,1.71,1.71,0,0,1,.38-2.38l2.68-1.94a1.7,1.7,0,0,1,2,2.76l-2.68,1.94A1.68,1.68,0,0,1,100.72,142.78Z"/><path class="cls-1" d="M101,153.74a1.62,1.62,0,0,1-1-.33,1.71,1.71,0,0,1-.37-2.38l2.22-3a1.7,1.7,0,0,1,2.74,2l-2.21,3A1.72,1.72,0,0,1,101,153.74Z"/><path class="cls-1" d="M101.72,164.69a1.8,1.8,0,0,1-.6-.1,1.71,1.71,0,0,1-1-2.19l1.52-4.07a1.7,1.7,0,1,1,3.19,1.19l-1.52,4.07A1.69,1.69,0,0,1,101.72,164.69Z"/><path class="cls-1" d="M102.76,175.56h-.18a1.71,1.71,0,0,1-1.52-1.87l.5-4.91a1.7,1.7,0,0,1,3.39.34l-.5,4.91A1.7,1.7,0,0,1,102.76,175.56Z"/><path class="cls-1" d="M104,186.26a1.69,1.69,0,0,1-1.67-1.43l-.87-5.27a1.7,1.7,0,0,1,3.36-.55l.86,5.28a1.7,1.7,0,0,1-1.4,2Z"/><path class="cls-1" d="M104.31,196.61a1.69,1.69,0,0,1-1.51-.92l-2.46-4.75a1.7,1.7,0,1,1,3-1.56l2.46,4.75a1.7,1.7,0,0,1-1.51,2.48Z"/><path class="cls-1" d="M104.45,206.67a1.72,1.72,0,0,1-1.16-.46l-3.68-3.42a1.71,1.71,0,0,1-.08-2.41,1.69,1.69,0,0,1,2.4-.08l3.68,3.42a1.71,1.71,0,0,1-1.16,2.95Z"/><path class="cls-1" d="M104.46,216.53a1.63,1.63,0,0,1-.57-.1l-4.39-1.58a1.7,1.7,0,1,1,1.15-3.2l4.39,1.58a1.7,1.7,0,0,1-.58,3.3Z"/><path class="cls-1" d="M99.79,226.61a1.7,1.7,0,0,1-.07-3.4l4.5-.2a1.7,1.7,0,1,1,.15,3.4l-4.5.2Z"/><path class="cls-1" d="M113.15,26.77a1.67,1.67,0,0,1-1.27-.57l-1.25-1.4a1.7,1.7,0,0,1,2.54-2.26l1.25,1.4a1.7,1.7,0,0,1-.14,2.4A1.68,1.68,0,0,1,113.15,26.77Z"/><path class="cls-1" d="M113.15,37.38a1.72,1.72,0,0,1-1.3-.59l-1.27-1.48a1.7,1.7,0,1,1,2.58-2.22l1.27,1.48a1.69,1.69,0,0,1-.18,2.4A1.71,1.71,0,0,1,113.15,37.38Z"/><path class="cls-1" d="M113.11,48.1a1.67,1.67,0,0,1-1.34-.66l-1.36-1.75a1.7,1.7,0,1,1,2.69-2.08l1.36,1.75a1.71,1.71,0,0,1-.31,2.39A1.67,1.67,0,0,1,113.11,48.1Z"/><path class="cls-1" d="M113.09,58.89a1.71,1.71,0,0,1-1.4-.73L110.21,56a1.7,1.7,0,0,1,2.8-1.93l1.47,2.13a1.7,1.7,0,0,1-1.39,2.67Z"/><path class="cls-1" d="M113.06,69.7a1.69,1.69,0,0,1-1.43-.78L110,66.37a1.7,1.7,0,0,1,2.87-1.84l1.63,2.55a1.71,1.71,0,0,1-.51,2.36A1.69,1.69,0,0,1,113.06,69.7Z"/><path class="cls-1" d="M113.08,80.42a1.67,1.67,0,0,1-1.41-.75l-1.9-2.82A1.7,1.7,0,0,1,112.6,75l1.89,2.81a1.7,1.7,0,0,1-.46,2.36A1.68,1.68,0,0,1,113.08,80.42Z"/><path class="cls-1" d="M113.17,90.93a1.66,1.66,0,0,1-1.29-.6l-2.36-2.73a1.7,1.7,0,1,1,2.58-2.22l2.35,2.74a1.71,1.71,0,0,1-1.28,2.81Z"/><path class="cls-1" d="M113.34,101.17a1.71,1.71,0,0,1-1-.36l-2.84-2.24a1.7,1.7,0,0,1,2.1-2.67l2.84,2.23a1.7,1.7,0,0,1-1,3Z"/><path class="cls-1" d="M113.48,111.21a1.67,1.67,0,0,1-.69-.14l-3.2-1.42a1.7,1.7,0,1,1,1.37-3.11l3.21,1.42a1.7,1.7,0,0,1-.69,3.25Z"/><path class="cls-1" d="M113.55,121.17h-.24l-3.36-.48a1.7,1.7,0,1,1,.48-3.36l3.36.47a1.7,1.7,0,0,1-.24,3.38Z"/><path class="cls-1" d="M110.22,131.65a1.7,1.7,0,0,1-.29-3.37l3.33-.59a1.7,1.7,0,0,1,.58,3.36l-3.32.58Z"/><path class="cls-1" d="M110.38,142.69a1.7,1.7,0,0,1-.87-3.17l3.12-1.84a1.7,1.7,0,0,1,1.72,2.94l-3.11,1.83A1.7,1.7,0,0,1,110.38,142.69Z"/><path class="cls-1" d="M110.67,153.68a1.67,1.67,0,0,1-1.14-.44,1.69,1.69,0,0,1-.12-2.4l2.72-3a1.7,1.7,0,1,1,2.52,2.28l-2.72,3A1.69,1.69,0,0,1,110.67,153.68Z"/><path class="cls-1" d="M111.38,164.71a1.77,1.77,0,0,1-.73-.17,1.71,1.71,0,0,1-.8-2.27l2-4.25a1.7,1.7,0,0,1,3.07,1.47l-2,4.25A1.7,1.7,0,0,1,111.38,164.71Z"/><path class="cls-1" d="M112.46,175.65l-.32,0a1.69,1.69,0,0,1-1.35-2l1-5.29a1.7,1.7,0,0,1,3.35.62l-1,5.3A1.7,1.7,0,0,1,112.46,175.65Z"/><path class="cls-1" d="M113.79,186.42a1.7,1.7,0,0,1-1.69-1.57l-.46-5.86a1.7,1.7,0,1,1,3.39-.26l.46,5.85a1.7,1.7,0,0,1-1.57,1.83Z"/><path class="cls-1" d="M114.08,196.83a1.7,1.7,0,0,1-1.58-1.07l-2.2-5.49a1.7,1.7,0,0,1,3.16-1.27l2.2,5.5a1.69,1.69,0,0,1-1,2.21A1.72,1.72,0,0,1,114.08,196.83Z"/><path class="cls-1" d="M114.25,206.91a1.66,1.66,0,0,1-1.29-.6l-3.6-4.24a1.7,1.7,0,1,1,2.59-2.2l3.6,4.24a1.7,1.7,0,0,1-1.3,2.8Z"/><path class="cls-1" d="M114.34,216.76a1.74,1.74,0,0,1-.8-.19l-4.48-2.38a1.7,1.7,0,0,1,1.6-3l4.48,2.38a1.7,1.7,0,0,1-.8,3.2Z"/><path class="cls-1" d="M114.25,226.61h-.19l-4.72-.5a1.7,1.7,0,0,1-1.51-1.87,1.68,1.68,0,0,1,1.87-1.51l4.72.49a1.71,1.71,0,0,1-.17,3.4Z"/><path class="cls-1" d="M123.23,26.6a1.65,1.65,0,0,1-1-.35l-1.55-1.18a1.7,1.7,0,1,1,2.06-2.7l1.55,1.18a1.7,1.7,0,0,1-1,3.05Z"/><path class="cls-1" d="M123.22,37.21a1.73,1.73,0,0,1-1.07-.38l-1.58-1.28a1.7,1.7,0,0,1,2.14-2.65l1.58,1.28a1.7,1.7,0,0,1,.25,2.39A1.67,1.67,0,0,1,123.22,37.21Z"/><path class="cls-1" d="M123.19,47.94a1.68,1.68,0,0,1-1.16-.46l-1.69-1.58a1.7,1.7,0,0,1,2.33-2.48L124.35,45a1.7,1.7,0,0,1-1.16,2.94Z"/><path class="cls-1" d="M123.17,58.73a1.71,1.71,0,0,1-1.25-.54l-1.84-2a1.7,1.7,0,0,1,2.5-2.31l1.84,2a1.7,1.7,0,0,1-.09,2.4A1.73,1.73,0,0,1,123.17,58.73Z"/><path class="cls-1" d="M123.15,69.57a1.72,1.72,0,0,1-1.31-.62l-2-2.45a1.7,1.7,0,0,1,2.62-2.17l2,2.45a1.71,1.71,0,0,1-1.31,2.79Z"/><path class="cls-1" d="M123.17,80.28a1.74,1.74,0,0,1-1.31-.6L119.57,77a1.7,1.7,0,0,1,2.6-2.19l2.29,2.72a1.7,1.7,0,0,1-1.29,2.8Z"/><path class="cls-1" d="M123.23,90.74a1.69,1.69,0,0,1-1.16-.46l-2.75-2.59a1.7,1.7,0,1,1,2.33-2.48l2.75,2.59a1.69,1.69,0,0,1,.07,2.4A1.67,1.67,0,0,1,123.23,90.74Z"/><path class="cls-1" d="M123.37,100.94a1.69,1.69,0,0,1-.91-.27l-3.21-2a1.7,1.7,0,1,1,1.83-2.87l3.2,2a1.7,1.7,0,0,1-.91,3.14Z"/><path class="cls-1" d="M123.47,111a1.58,1.58,0,0,1-.56-.1l-3.53-1.24a1.7,1.7,0,0,1,1.13-3.21l3.53,1.24a1.7,1.7,0,0,1-.57,3.31Z"/><path class="cls-1" d="M123.53,121h-.18l-3.66-.38a1.7,1.7,0,1,1,.35-3.38l3.66.38a1.7,1.7,0,0,1-.17,3.39Z"/><path class="cls-1" d="M119.89,131.52a1.7,1.7,0,0,1-.26-3.38l3.65-.58a1.71,1.71,0,0,1,.53,3.37l-3.65.57Z"/><path class="cls-1" d="M120,142.52a1.7,1.7,0,0,1-.77-3.21l3.49-1.79a1.7,1.7,0,0,1,2.29.74,1.72,1.72,0,0,1-.74,2.29l-3.49,1.78A1.66,1.66,0,0,1,120,142.52Z"/><path class="cls-1" d="M120.33,153.53a1.7,1.7,0,0,1-1.18-2.93l3.15-3a1.7,1.7,0,0,1,2.35,2.46l-3.15,3A1.68,1.68,0,0,1,120.33,153.53Z"/><path class="cls-1" d="M121.05,164.59a1.73,1.73,0,0,1-.84-.22,1.7,1.7,0,0,1-.64-2.31l2.48-4.4a1.7,1.7,0,1,1,3,1.67l-2.49,4.4A1.7,1.7,0,0,1,121.05,164.59Z"/><path class="cls-1" d="M122.17,175.6a1.52,1.52,0,0,1-.42-.06,1.69,1.69,0,0,1-1.23-2.06l1.41-5.61a1.7,1.7,0,1,1,3.3.82l-1.41,5.62A1.71,1.71,0,0,1,122.17,175.6Z"/><path class="cls-1" d="M123.58,186.41a1.7,1.7,0,0,1-1.7-1.67l-.12-6.33a1.69,1.69,0,0,1,1.67-1.73h0a1.71,1.71,0,0,1,1.7,1.67l.12,6.33a1.7,1.7,0,0,1-1.67,1.73Z"/><path class="cls-1" d="M123.84,196.87a1.7,1.7,0,0,1-1.61-1.17l-2-6.12a1.7,1.7,0,1,1,3.23-1.05l2,6.11a1.69,1.69,0,0,1-1.09,2.14A1.6,1.6,0,0,1,123.84,196.87Z"/><path class="cls-1" d="M124,207a1.72,1.72,0,0,1-1.39-.71l-3.49-4.88a1.72,1.72,0,0,1,.4-2.38,1.7,1.7,0,0,1,2.37.4l3.49,4.88a1.7,1.7,0,0,1-.4,2.37A1.64,1.64,0,0,1,124,207Z"/><path class="cls-1" d="M124.12,216.76a1.73,1.73,0,0,1-1-.28l-4.43-3a1.7,1.7,0,0,1,1.89-2.83l4.44,3a1.7,1.7,0,0,1-.95,3.11Z"/><path class="cls-1" d="M124.11,226.61a2.45,2.45,0,0,1-.38,0l-4.84-1.1a1.7,1.7,0,1,1,.75-3.32l4.84,1.1a1.7,1.7,0,0,1-.37,3.36Z"/><path class="cls-1" d="M133.31,26.22a1.78,1.78,0,0,1-.71-.15l-1.85-.85a1.7,1.7,0,0,1,1.4-3.1L134,23a1.7,1.7,0,0,1-.7,3.25Z"/><path class="cls-1" d="M133.31,36.82a1.69,1.69,0,0,1-.76-.17l-1.91-.95a1.7,1.7,0,0,1,1.51-3.05l1.91,1a1.7,1.7,0,0,1-.75,3.22Z"/><path class="cls-1" d="M133.29,47.57a1.75,1.75,0,0,1-.88-.25l-2.07-1.26a1.71,1.71,0,0,1,1.78-2.91l2.06,1.26a1.7,1.7,0,0,1-.89,3.16Z"/><path class="cls-1" d="M133.29,58.39a1.67,1.67,0,0,1-1-.34L130,56.34a1.7,1.7,0,1,1,2-2.71l2.27,1.7a1.7,1.7,0,0,1-1,3.06Z"/><path class="cls-1" d="M133.27,69.23a1.72,1.72,0,0,1-1.12-.42l-2.48-2.19a1.7,1.7,0,1,1,2.24-2.55l2.49,2.19a1.7,1.7,0,0,1,.15,2.4A1.68,1.68,0,0,1,133.27,69.23Z"/><path class="cls-1" d="M133.28,80a1.7,1.7,0,0,1-1.13-.43l-2.77-2.48a1.7,1.7,0,0,1,2.26-2.54L134.42,77a1.7,1.7,0,0,1,.13,2.4A1.67,1.67,0,0,1,133.28,80Z"/><path class="cls-1" d="M133.33,90.37a1.7,1.7,0,0,1-1-.31l-3.22-2.27a1.7,1.7,0,0,1,2-2.77l3.21,2.26a1.7,1.7,0,0,1-1,3.09Z"/><path class="cls-1" d="M133.42,100.53a1.63,1.63,0,0,1-.71-.16l-3.61-1.64a1.7,1.7,0,0,1,1.4-3.1l3.62,1.65a1.7,1.7,0,0,1,.85,2.25A1.73,1.73,0,0,1,133.42,100.53Z"/><path class="cls-1" d="M133.48,110.59a2.46,2.46,0,0,1-.37,0l-3.88-.86a1.7,1.7,0,1,1,.74-3.32l3.88.86a1.7,1.7,0,0,1-.37,3.36Z"/><path class="cls-1" d="M133.52,120.66h0l-4-.1a1.7,1.7,0,0,1-1.66-1.74,1.76,1.76,0,0,1,1.75-1.66l4,.1a1.7,1.7,0,0,1,0,3.4Z"/><path class="cls-1" d="M129.56,131.42a1.7,1.7,0,0,1-.31-3.37l4-.75a1.7,1.7,0,0,1,.63,3.35l-4,.74A1.73,1.73,0,0,1,129.56,131.42Z"/><path class="cls-1" d="M129.71,142.41a1.7,1.7,0,0,1-.76-3.22l3.84-1.92a1.7,1.7,0,1,1,1.51,3l-3.83,1.92A1.76,1.76,0,0,1,129.71,142.41Z"/><path class="cls-1" d="M130,153.42a1.72,1.72,0,0,1-1.27-.56,1.7,1.7,0,0,1,.13-2.4l3.52-3.16a1.7,1.7,0,1,1,2.28,2.53L131.14,153A1.68,1.68,0,0,1,130,153.42Z"/><path class="cls-1" d="M130.76,164.54a1.7,1.7,0,0,1-1.45-2.59l2.84-4.66a1.7,1.7,0,1,1,2.9,1.78l-2.84,4.65A1.69,1.69,0,0,1,130.76,164.54Z"/><path class="cls-1" d="M131.93,175.58a1.58,1.58,0,0,1-.47-.07,1.71,1.71,0,0,1-1.17-2.1l1.72-6a1.7,1.7,0,0,1,3.27.94l-1.72,6A1.7,1.7,0,0,1,131.93,175.58Z"/><path class="cls-1" d="M133.41,186.44h0a1.7,1.7,0,0,1-1.67-1.73l.12-6.81a1.7,1.7,0,0,1,1.7-1.68h0a1.69,1.69,0,0,1,1.67,1.73l-.12,6.81A1.71,1.71,0,0,1,133.41,186.44Z"/><path class="cls-1" d="M133.61,196.85a1.7,1.7,0,0,1-1.63-1.24l-1.82-6.44a1.7,1.7,0,0,1,3.28-.93l1.81,6.45a1.69,1.69,0,0,1-1.17,2.09A1.53,1.53,0,0,1,133.61,196.85Z"/><path class="cls-1" d="M133.74,206.9a1.73,1.73,0,0,1-1.44-.78L129,201a1.7,1.7,0,1,1,2.87-1.83l3.3,5.14a1.71,1.71,0,0,1-.52,2.35A1.69,1.69,0,0,1,133.74,206.9Z"/><path class="cls-1" d="M133.85,216.75a1.69,1.69,0,0,1-1-.35l-4.3-3.32a1.7,1.7,0,0,1,2.08-2.69l4.3,3.32a1.7,1.7,0,0,1-1,3Z"/><path class="cls-1" d="M133.88,226.61a1.69,1.69,0,0,1-.5-.08L128.59,225a1.7,1.7,0,0,1,1-3.25l4.79,1.49a1.7,1.7,0,0,1-.5,3.33Z"/><path class="cls-1" d="M143.38,25.91a1.64,1.64,0,0,1-.38,0l-2.15-.49a1.7,1.7,0,0,1,.75-3.32l2.15.49a1.7,1.7,0,0,1-.37,3.36Z"/><path class="cls-1" d="M143.38,36.52a1.72,1.72,0,0,1-.44-.06l-2.21-.59a1.7,1.7,0,0,1,.88-3.29l2.21.6a1.7,1.7,0,0,1-.44,3.34Z"/><path class="cls-1" d="M143.37,47.26a1.56,1.56,0,0,1-.6-.11l-2.39-.91a1.7,1.7,0,1,1,1.21-3.18L144,44a1.7,1.7,0,0,1-.6,3.29Z"/><path class="cls-1" d="M143.37,58.1a1.75,1.75,0,0,1-.79-.2L140,56.53a1.7,1.7,0,0,1,1.57-3l2.63,1.37a1.7,1.7,0,0,1-.79,3.21Z"/><path class="cls-1" d="M143.36,69a1.63,1.63,0,0,1-.92-.28l-2.88-1.88A1.7,1.7,0,0,1,141.41,64l2.88,1.88a1.7,1.7,0,0,1-.93,3.13Z"/><path class="cls-1" d="M143.38,79.67a1.66,1.66,0,0,1-.95-.29l-3.2-2.16a1.7,1.7,0,0,1,1.91-2.82l3.19,2.16a1.7,1.7,0,0,1-1,3.11Z"/><path class="cls-1" d="M143.4,90.06a1.6,1.6,0,0,1-.79-.2L139,88a1.7,1.7,0,1,1,1.59-3l3.61,1.91a1.7,1.7,0,0,1-.79,3.2Z"/><path class="cls-1" d="M143.45,100.17a1.66,1.66,0,0,1-.49-.07l-4-1.2a1.7,1.7,0,0,1,1-3.26l4,1.2a1.7,1.7,0,0,1-.49,3.33Z"/><path class="cls-1" d="M143.48,110.23h-.18l-4.2-.42a1.7,1.7,0,1,1,.35-3.39l4.2.43a1.7,1.7,0,0,1-.17,3.39Z"/><path class="cls-1" d="M139.22,120.61a1.7,1.7,0,0,1-.1-3.4l4.26-.27a1.7,1.7,0,0,1,.22,3.4l-4.27.27Z"/><path class="cls-1" d="M139.26,131.45a1.7,1.7,0,0,1-.41-3.35l4.25-1a1.7,1.7,0,1,1,.81,3.3l-4.24,1.05A1.44,1.44,0,0,1,139.26,131.45Z"/><path class="cls-1" d="M139.42,142.42a1.7,1.7,0,0,1-.8-3.2l4.1-2.18a1.7,1.7,0,0,1,1.6,3l-4.1,2.18A1.74,1.74,0,0,1,139.42,142.42Z"/><path class="cls-1" d="M139.76,153.45a1.7,1.7,0,0,1-1.15-3l3.76-3.44a1.71,1.71,0,0,1,2.3,2.52L140.9,153A1.66,1.66,0,0,1,139.76,153.45Z"/><path class="cls-1" d="M140.54,164.57a1.66,1.66,0,0,1-.88-.25,1.7,1.7,0,0,1-.57-2.34l3-5a1.7,1.7,0,1,1,2.9,1.78l-3,5A1.69,1.69,0,0,1,140.54,164.57Z"/><path class="cls-1" d="M141.77,175.65a1.59,1.59,0,0,1-.48-.07,1.69,1.69,0,0,1-1.15-2.11l1.87-6.38a1.7,1.7,0,1,1,3.26,1l-1.87,6.38A1.7,1.7,0,0,1,141.77,175.65Z"/><path class="cls-1" d="M143.33,186.4h-.05a1.71,1.71,0,0,1-1.66-1.75l.19-6.93a1.72,1.72,0,0,1,1.75-1.65,1.69,1.69,0,0,1,1.65,1.75l-.19,6.93A1.69,1.69,0,0,1,143.33,186.4Z"/><path class="cls-1" d="M143.43,196.78a1.7,1.7,0,0,1-1.64-1.26l-1.72-6.5a1.7,1.7,0,1,1,3.28-.87l1.73,6.5a1.71,1.71,0,0,1-1.21,2.08A2.12,2.12,0,0,1,143.43,196.78Z"/><path class="cls-1" d="M143.51,206.85a1.7,1.7,0,0,1-1.46-.81l-3.21-5.24a1.7,1.7,0,0,1,2.9-1.78l3.21,5.24a1.69,1.69,0,0,1-.56,2.34A1.66,1.66,0,0,1,143.51,206.85Z"/><path class="cls-1" d="M143.62,216.74a1.71,1.71,0,0,1-1.08-.39l-4.23-3.49a1.7,1.7,0,1,1,2.16-2.62l4.23,3.48a1.7,1.7,0,0,1,.24,2.39A1.72,1.72,0,0,1,143.62,216.74Z"/><path class="cls-1" d="M143.66,226.61a1.9,1.9,0,0,1-.57-.1l-4.76-1.71a1.7,1.7,0,0,1,1.15-3.2l4.76,1.71a1.7,1.7,0,0,1-.58,3.3Z"/><path class="cls-1" d="M153.46,25.48h-.12l-2.46-.17a1.7,1.7,0,0,1-1.57-1.82,1.68,1.68,0,0,1,1.81-1.58l2.46.18a1.7,1.7,0,0,1-.12,3.39Z"/><path class="cls-1" d="M153.46,36.1h-.18l-2.53-.27a1.7,1.7,0,1,1,.37-3.38l2.52.27a1.7,1.7,0,0,1-.18,3.39Z"/><path class="cls-1" d="M153.46,46.86a1.55,1.55,0,0,1-.37,0l-2.72-.6a1.7,1.7,0,1,1,.73-3.32l2.72.6a1.7,1.7,0,0,1-.36,3.36Z"/><path class="cls-1" d="M153.46,57.71a1.69,1.69,0,0,1-.58-.1l-3-1.07A1.7,1.7,0,0,1,151,53.33l3,1.08a1.7,1.7,0,0,1-.57,3.3Z"/><path class="cls-1" d="M153.46,68.58a1.63,1.63,0,0,1-.74-.17l-3.28-1.58a1.7,1.7,0,1,1,1.48-3.06l3.28,1.58a1.7,1.7,0,0,1-.74,3.23Z"/><path class="cls-1" d="M153.46,79.3a1.66,1.66,0,0,1-.78-.19l-3.59-1.83a1.7,1.7,0,1,1,1.54-3l3.6,1.83a1.7,1.7,0,0,1-.77,3.22Z"/><path class="cls-1" d="M153.46,89.66a1.87,1.87,0,0,1-.61-.11l-4-1.53a1.7,1.7,0,1,1,1.21-3.18l4,1.53a1.7,1.7,0,0,1-.61,3.29Z"/><path class="cls-1" d="M153.46,99.73l-.29,0L148.84,99a1.7,1.7,0,1,1,.58-3.35l4.33.76a1.7,1.7,0,0,1-.29,3.37Z"/><path class="cls-1" d="M149,109.84a1.7,1.7,0,0,1,0-3.4l4.51,0h0a1.7,1.7,0,0,1,0,3.4l-4.51,0Z"/><path class="cls-1" d="M148.92,120.67a1.7,1.7,0,0,1-.29-3.38l4.54-.76a1.7,1.7,0,0,1,.57,3.35l-4.54.76Z"/><path class="cls-1" d="M149,131.52a1.7,1.7,0,0,1-.55-3.31l4.47-1.55a1.7,1.7,0,0,1,1.11,3.21l-4.47,1.56A1.77,1.77,0,0,1,149,131.52Z"/><path class="cls-1" d="M149.18,142.5a1.7,1.7,0,0,1-.91-3.14l4.28-2.68a1.7,1.7,0,1,1,1.81,2.88l-4.28,2.68A1.67,1.67,0,0,1,149.18,142.5Z"/><path class="cls-1" d="M149.56,153.54a1.7,1.7,0,0,1-1.21-2.9l3.9-3.94a1.7,1.7,0,0,1,2.42,2.39l-3.9,3.94A1.7,1.7,0,0,1,149.56,153.54Z"/><path class="cls-1" d="M150.42,164.65a1.73,1.73,0,0,1-.84-.22,1.7,1.7,0,0,1-.64-2.31l3.08-5.43a1.7,1.7,0,1,1,3,1.67l-3.08,5.43A1.7,1.7,0,0,1,150.42,164.65Z"/><path class="cls-1" d="M151.76,175.61a1.74,1.74,0,0,1-.45-.06,1.71,1.71,0,0,1-1.2-2.08l1.75-6.5a1.7,1.7,0,1,1,3.28.89l-1.74,6.49A1.7,1.7,0,0,1,151.76,175.61Z"/><path class="cls-1" d="M153.33,186.34h0a1.69,1.69,0,0,1-1.67-1.72l.08-6.94a1.7,1.7,0,0,1,1.7-1.68h0a1.71,1.71,0,0,1,1.68,1.73l-.08,6.94A1.7,1.7,0,0,1,153.33,186.34Z"/><path class="cls-1" d="M153.33,196.72a1.7,1.7,0,0,1-1.64-1.25L149.91,189a1.7,1.7,0,1,1,3.28-.9l1.78,6.48a1.7,1.7,0,0,1-1.19,2.08A1.45,1.45,0,0,1,153.33,196.72Z"/><path class="cls-1" d="M153.33,206.8a1.7,1.7,0,0,1-1.45-.81l-3.23-5.23a1.7,1.7,0,0,1,2.9-1.79l3.22,5.23a1.7,1.7,0,0,1-1.44,2.6Z"/><path class="cls-1" d="M153.41,216.71a1.69,1.69,0,0,1-1.09-.4l-4.22-3.51a1.7,1.7,0,0,1,2.18-2.62l4.22,3.52a1.7,1.7,0,0,1-1.09,3Z"/><path class="cls-1" d="M153.46,226.61a1.77,1.77,0,0,1-.6-.11l-4.74-1.78a1.7,1.7,0,1,1,1.19-3.19l4.74,1.78a1.7,1.7,0,0,1-.59,3.3Z"/><path class="cls-1" d="M163.31,237h-150a1.71,1.71,0,0,1-1.7-1.71v-222a1.71,1.71,0,0,1,1.7-1.71h150A1.72,1.72,0,0,1,165,13.28v222A1.72,1.72,0,0,1,163.31,237ZM15,233.6H161.61V15H15Z"/></svg>